<?xml version="1.0" encoding="UTF-8"?>
<!DOCTYPE svg PUBLIC "-//W3C//DTD SVG 1.1//EN"
    "http://www.w3.org/Graphics/SVG/1.1/DTD/svg11.dtd"><svg stroke="rgb(0,0,0)" xmlns="http://www.w3.org/2000/svg" font-size="1" width="600.0000" stroke-opacity="1" xmlns:xlink="http://www.w3.org/1999/xlink" viewBox="0.0 0.0 600.0 747.9405297388545" height="747.9405" version="1.1"><defs></defs><g fill="rgb(255,255,255)" stroke="rgb(0,0,0)" stroke-linecap="butt" stroke-width="0.0" stroke-miterlimit="10.0" fill-opacity="1.0" stroke-opacity="1.0" stroke-linejoin="miter"><path d="M 600.0000,747.9405 l -0.0000,-747.9405 h -600.0000 l -0.0000,747.9405 Z"/></g><g fill="rgb(137,59,255)" stroke="rgb(0,0,0)" stroke-linecap="butt" stroke-width="3.0281538461538453" font-size="2.67959494802722px" stroke-miterlimit="4.0" fill-opacity="1.0" stroke-opacity="0.0" stroke-linejoin="miter" opacity="1.0"><path d="M 118.3108,-2486.4351 ZM 336.2314,476.5543 c -55.8569,4.6186 -113.1292,16.7223 -161.5213 46.1025c -26.7166,15.8193 -51.2513,49.9734 -35.7642 81.4232c 20.4102,35.4040 61.9952,51.0401 98.7934 63.6043c 56.2514,15.7894 122.2344,29.4715 175.6567 -2.0240c 41.5607,-25.1849 55.5244,-80.7824 39.0170 -125.0119c -15.0585,-49.0592 -69.7032,-66.4999 -116.1817 -64.0939ZM 118.3108,-2486.4351 Z"/></g><g fill="rgb(35,31,32)" stroke="rgb(0,0,0)" stroke-linecap="butt" stroke-width="3.0281538461538453" font-size="2.67959494802722px" stroke-miterlimit="4.0" fill-opacity="1.0" stroke-opacity="0.0" stroke-linejoin="miter" opacity="1.0"><path d="M 118.3108,-2486.4351 ZM 241.7509,662.5533 c -25.2710,-7.0011 -92.2419,-33.0502 -100.3224 -69.5676c -0.0648,-0.2968 -0.1887,-0.7319 -0.2771 -1.0238c -0.2032,-0.6508 -4.8165,-16.1870 7.4299 -35.7561c 14.6436,-23.4097 54.7781,-54.7817 162.8169 -71.2976c 0.1220,-0.0182 0.2550,-0.0406 0.3732 -0.0666c 0.6949,-0.1293 69.9114,-12.6124 110.7686 21.8055c 20.7779,17.5028 31.0467,44.7718 30.5163 81.0378c -0.0121,0.3180 -1.6265,43.0640 -37.6634 69.3054c -36.5581,26.6256 -94.9810,28.4961 -173.6420 5.5630c 0.0000,0.0000 0.0000,0.0000 0.0000 0.0000ZM 118.3108,-2486.4351 ZM 307.8698,463.3059 c -93.9995,14.4051 -154.0414,42.0770 -178.4511 82.2652c -8.9103,14.6747 -11.1079,28.1745 -11.1079 37.9182c 0.0000,8.5797 1.6856,14.1908 2.0090 15.1962c 13.4885,56.1644 111.2769,83.7696 115.4576 84.9231c 85.5827,24.9547 150.5076,21.8869 192.8211 -9.1599c 44.6997,-32.7916 46.2965,-84.2021 46.3427 -86.3720c 0.6321,-43.2747 -12.2853,-76.3026 -38.3879 -98.2449c -48.5033,-40.7647 -124.3218,-27.3428 -128.6836 -26.5259c 0.0000,0.0000 0.0000,0.0000 0.0000 0.0000ZM 118.3108,-2486.4351 Z"/></g><g fill="rgb(35,31,32)" stroke="rgb(0,0,0)" stroke-linecap="butt" stroke-width="3.0281538461538453" font-size="2.67959494802722px" stroke-miterlimit="4.0" fill-opacity="1.0" stroke-opacity="0.0" stroke-linejoin="miter" opacity="1.0"><path d="M 118.3108,-2486.4351 ZM 152.6067,574.6920 c 0.0000,0.0000 19.1274,-51.0078 76.5115 -55.7911c 0.0000,0.0000 -60.5704,27.0990 -52.6009 55.7911c 0.0000,0.0000 -23.9106,0.0000 -23.9106 0.0000c 0.0000,0.0000 0.0000,0.0000 0.0000 0.0000ZM 118.3108,-2486.4351 Z"/></g><g fill="rgb(35,31,32)" stroke="rgb(0,0,0)" stroke-linecap="butt" stroke-width="1.586106262345201" font-size="2.67959494802722px" stroke-miterlimit="4.0" fill-opacity="1.0" stroke-opacity="0.0" stroke-linejoin="miter" opacity="1.0"><path d="M 767.7826,1616.3808 ZM 348.7091,292.5513 c -3.0921,-5.4077 -5.7523,-8.2335 -8.6837 -8.5850c -2.9730,-0.3562 -5.5771,1.6884 -8.4746 6.0302c -1.0978,-0.0416 -2.2034,-0.0601 -3.3167 -0.0611c -2.8423,-5.6604 -5.3351,-8.5501 -8.4407 -8.5666c 0.0000,-0.0000 -0.0079,-0.0000 -0.0079 -0.0000c -3.2731,-0.0159 -6.2887,3.3244 -10.2210 10.1513c -0.6244,0.1007 -1.2508,0.2062 -1.8781 0.3156c -4.9014,-5.6865 -8.3807,-8.3052 -11.5018 -7.7766c -3.4541,0.5847 -5.4726,4.5742 -7.4029 12.0691c 0.0000,-0.0000 0.3030,0.0765 0.3030 0.0765c -0.6554,0.1897 -1.3108,0.3833 -1.9642 0.5808c 0.0000,-0.0000 0.4860,-0.4337 0.4860 -0.4337c -4.3089,-4.8578 -7.6343,-6.9634 -10.8551 -6.0108c -4.2179,1.2450 -7.1183,8.6759 -7.5956 12.6402c -0.9342,0.3611 -1.8674,0.7261 -2.7939 1.0969c 0.0000,-0.0000 -1.5228,-0.7503 -1.5228 -0.7503c -5.3864,-3.6081 -9.1184,-4.8772 -11.9558 -3.5509c -2.1772,1.9972 -3.6361,6.2964 -4.6023 12.1678c -2.8752,1.3495 -7.4416,-9.3894 -14.3964 -5.5703c -2.9846,1.6390 -4.1173,6.4252 -4.5200 15.1001c 0.0000,-0.0000 0.0198,0.0010 0.0198 0.0010c -0.0785,0.0406 -0.1568,0.0833 -0.2352 0.1259c -6.6188,-3.3864 -10.8832,-4.3893 -13.7013 -2.5616c -2.7164,1.7629 -3.4686,5.6594 -3.0688 12.0933c -0.2536,0.1511 -0.5044,0.3040 -0.7561 0.4540c -6.5249,-3.8743 -10.7438,-5.3816 -13.6229 -3.7145c -2.8965,1.6758 -3.6119,6.0040 -3.0572 13.7506c -0.7842,0.4424 -1.5770,0.8829 -2.3737 1.3205c -5.7223,-3.2721 -9.5831,-4.3360 -12.3411 -2.8733c -2.8123,1.4928 -3.8685,5.1434 -3.9449 11.2743c -0.4502,0.2188 -0.9032,0.4366 -1.3563 0.6554c -5.7552,-3.8762 -9.6382,-5.5142 -12.5086 -4.3070c -2.9933,1.2614 -4.1231,5.0505 -4.2160 11.9558c -0.9110,0.3959 -1.8248,0.7929 -2.7426 1.1878c -6.3961,-4.0079 -10.6363,-5.5626 -13.6461 -4.3157c -3.1724,1.3146 -4.3612,5.1182 -4.5064 11.7632c -0.3746,0.1491 -0.7483,0.2953 -1.1230 0.4405c -5.6584,-3.9643 -9.5133,-5.7427 -12.4031 -4.7775c -3.0969,1.0368 -4.3786,4.5868 -4.6439 11.1901c -0.1636,0.0611 -0.3282,0.1192 -0.4918 0.1790c -5.0302,-4.1066 -8.6227,-5.7204 -11.5705 -4.6545c -2.9662,1.0736 -4.5897,4.5645 -5.6846 10.6605c -0.3892,0.1297 -0.7774,0.2585 -1.1646 0.3892c -5.2887,-5.0892 -8.9664,-7.4407 -12.0962 -6.5346c -3.1869,0.9236 -4.8908,4.8733 -6.1473 12.3624c -8.6963,2.6554 -16.9821,5.0118 -24.5951 7.0089c 0.0000,-0.0000 -0.3872,4.3244 -0.3872 4.3244c 43.2694,19.8438 67.8790,18.2948 98.9942 15.1476c 6.5123,-0.3137 12.9994,-0.9719 19.4585 -1.9032c 9.9703,-0.8635 20.8786,-1.5296 33.2846 -1.5150c 12.7555,0.0099 27.2176,1.3069 42.2258 2.6487c 57.2679,5.1260 122.2804,10.9442 137.5626 -49.4932c 2.0814,-8.2219 2.2798,-16.4661 0.7754 -24.5351c -1.5402,-8.2655 -4.8607,-16.3228 -9.7670 -23.9629c -7.7931,-12.1311 -18.4710,-19.2494 -30.8247 -22.7083c 0.0000,-0.0000 0.0000,-0.0000 0.0000 -0.0000ZM 767.7826,1616.3808 Z"/></g><g fill="rgb(255,255,255)" stroke="rgb(0,0,0)" stroke-linecap="butt" stroke-width="1.586106262345201" font-size="2.67959494802722px" stroke-miterlimit="4.0" fill-opacity="1.0" stroke-opacity="0.0" stroke-linejoin="miter" opacity="1.0"><path d="M 767.7826,1616.3808 ZM 180.9675,349.0331 c 0.1471,-2.8268 0.5692,-4.4425 1.4134 -4.8888c 0.9090,-0.4821 2.6477,0.0019 5.3680 1.3999c -2.2140,1.1714 -4.4812,2.3340 -6.7814 3.4890c 0.0000,-0.0000 0.0000,-0.0000 0.0000 -0.0000ZM 767.7826,1616.3808 ZM 162.8644,357.5910 c 0.1190,-3.4677 0.5140,-5.2974 1.3427 -5.6478c 0.9294,-0.3892 2.8307,0.4511 5.8443 2.3660c -2.3631,1.1046 -4.7630,2.1995 -7.1870 3.2818c 0.0000,-0.0000 0.0000,-0.0000 0.0000 -0.0000ZM 767.7826,1616.3808 ZM 141.9557,366.4402 c 0.1588,-3.3912 0.6283,-5.2548 1.6070 -5.6643c 1.1404,-0.4695 3.2925,0.3137 6.6827 2.2702c -2.7464,1.1472 -5.5103,2.2798 -8.2897 3.3941c 0.0000,-0.0000 0.0000,-0.0000 0.0000 -0.0000ZM 767.7826,1616.3808 ZM 123.8139,373.4268 c 0.1955,-3.1860 0.6215,-4.8375 1.4231 -5.1047c 0.9729,-0.3253 2.8404,0.5295 5.7281 2.4173c -2.3805,0.9100 -4.7678,1.8074 -7.1512 2.6874c 0.0000,-0.0000 0.0000,-0.0000 0.0000 -0.0000ZM 767.7826,1616.3808 ZM 106.4116,379.6206 c 0.6225,-2.7629 1.3117,-4.3022 2.2247 -4.6333c 0.9381,-0.3369 2.5219,0.3901 4.9004 2.1550c -2.3844,0.8442 -4.7601,1.6680 -7.1251 2.4783c 0.0000,-0.0000 0.0000,-0.0000 0.0000 -0.0000ZM 767.7826,1616.3808 ZM 86.9144,386.0139 c 0.7541,-4.0427 1.5083,-6.1280 2.4938 -6.4097c 1.0146,-0.2953 2.9013,1.0039 5.8569 3.7445c -2.8152,0.9129 -5.5984,1.8016 -8.3507 2.6651c 0.0000,-0.0000 0.0000,-0.0000 0.0000 -0.0000ZM 767.7826,1616.3808 ZM 234.1172,318.9703 c 0.3388,-5.1812 0.8955,-7.9547 1.9700 -8.5443c 0.9836,-0.5402 3.2983,0.8364 7.2238 3.9023c -3.1550,1.5402 -6.2228,3.0930 -9.1939 4.6420c 0.0000,-0.0000 0.0000,-0.0000 0.0000 -0.0000ZM 767.7826,1616.3808 ZM 216.8659,328.4836 c -0.0870,-3.1695 0.2168,-5.0050 1.0775 -5.5655c 0.9410,-0.6099 2.9556,-0.1162 6.2519 1.3960c -2.5558,1.4221 -5.0040,2.8162 -7.3294 4.1695c 0.0000,-0.0000 0.0000,-0.0000 0.0000 -0.0000ZM 767.7826,1616.3808 ZM 199.3911,339.0657 c -0.2372,-4.3506 -0.0040,-6.6759 0.9129 -7.2064c 0.9419,-0.5441 3.1724,0.3437 6.8676 2.4464c -0.6835,0.4240 -1.3505,0.8403 -1.9981 1.2450c -1.8674,1.1743 -3.7988,2.3486 -5.7823 3.5151c 0.0000,-0.0000 0.0000,-0.0000 0.0000 -0.0000ZM 767.7826,1616.3808 ZM 336.8956,290.3615 c 1.0378,-1.2934 1.8820,-1.9052 2.5935 -1.8200c 0.8297,0.0997 1.7861,0.9565 2.9459 2.5857c -1.8190,-0.3243 -3.6681,-0.5750 -5.5394 -0.7658c 0.0000,-0.0000 0.0000,-0.0000 0.0000 -0.0000ZM 767.7826,1616.3808 ZM 315.3935,290.7071 c 1.9797,-3.1811 3.3641,-4.7446 4.3835 -4.7388c 0.0000,-0.0000 -0.0079,-0.0000 -0.0079 -0.0000c 0.8858,0.0040 1.9623,1.3834 3.3951 4.0892c -2.5625,0.1249 -5.1560,0.3456 -7.7698 0.6496c 0.0000,-0.0000 0.0000,-0.0000 0.0000 -0.0000ZM 767.7826,1616.3808 ZM 274.3633,301.0278 c 1.3737,-3.8617 2.5209,-5.9217 3.6855 -6.2645c 1.0000,-0.2943 2.5722,0.8384 4.9062 3.3186c -2.8752,0.9255 -5.7436,1.9120 -8.5917 2.9459c 0.0000,-0.0000 0.0000,-0.0000 0.0000 -0.0000ZM 767.7826,1616.3808 ZM 293.8953,294.8757 c 1.1297,-3.9953 2.0572,-6.0844 3.0562 -6.2528c 1.0504,-0.1772 2.7997,1.2285 5.5055 4.2218c -2.8423,0.5983 -5.7030,1.2788 -8.5617 2.0310c 0.0000,-0.0000 0.0000,-0.0000 0.0000 -0.0000ZM 767.7826,1616.3808 ZM 252.9531,309.7880 c 0.3563,-3.4532 0.9168,-5.3796 1.8752 -5.8279c 1.0126,-0.4734 2.9807,0.3224 6.1347 2.3292c -2.7048,1.1385 -5.3787,2.3079 -8.0099 3.4987c 0.0000,-0.0000 0.0000,-0.0000 0.0000 -0.0000ZM 767.7826,1616.3808 Z"/></g><g fill="rgb(137,59,255)" stroke="rgb(0,0,0)" stroke-linecap="butt" stroke-width="1.586106262345201" font-size="2.67959494802722px" stroke-miterlimit="4.0" fill-opacity="1.0" stroke-opacity="0.0" stroke-linejoin="miter" opacity="1.0"><path d="M 767.7826,1616.3808 ZM 333.0232,294.6995 c 0.0000,-0.0000 0.7551,0.4385 0.7551 0.4385c 0.0745,-0.1279 0.1501,-0.2507 0.2198 -0.3747c 4.0243,0.2827 7.9238,0.8655 11.6625 1.7910c 0.0890,0.1675 0.1790,0.3359 0.2691 0.5082c 0.0000,-0.0000 0.5586,-0.2953 0.5586 -0.2953c 11.7690,3.0940 21.8932,9.6469 29.1664 20.9706c 4.5955,7.1580 7.6982,14.6635 9.1251 22.3201c 1.3805,7.4126 1.1936,14.9966 -0.7193 22.5747c -1.6041,6.3380 -3.8191,11.8910 -6.5607 16.7585c -39.0505,-18.9657 -82.9540,-5.1976 -129.5807 9.4253c -23.8022,7.4639 -48.3218,15.1544 -73.1638 18.7295c -5.3477,0.4647 -10.4107,0.9807 -15.2918 1.4812c -1.2275,0.1249 -2.4405,0.2488 -3.6439 0.3717c -1.2198,0.0581 -2.4396,0.1075 -3.6584 0.1404c 0.0000,-0.0000 0.0040,0.2246 0.0040 0.2246c -27.4161,2.6796 -50.2880,3.4425 -87.3123 -12.4544c 22.9620,-6.3071 50.8795,-15.4400 77.6606 -26.1363c 24.0597,-9.6063 47.2240,-20.4827 65.1035 -31.7212c 22.3095,-14.0217 67.7048,-39.1812 107.5346 -44.0681c 3.4541,-0.4240 6.8647,-0.6922 10.2133 -0.7880c 0.0119,0.0289 0.0222,0.0551 0.0359 0.0833c 0.0000,-0.0000 0.1965,-0.0880 0.1965 -0.0880c 2.5141,-0.0668 4.9904,-0.0329 7.4252 0.1085c 0.0000,-0.0000 0.0000,-0.0000 0.0000 -0.0000ZM 767.7826,1616.3808 Z"/></g><g fill="rgb(137,59,255)" stroke="rgb(0,0,0)" stroke-linecap="butt" stroke-width="1.586106262345201" font-size="2.67959494802722px" stroke-miterlimit="4.0" fill-opacity="1.0" stroke-opacity="0.0" stroke-linejoin="miter" opacity="1.0"><path d="M 767.7826,1616.3808 ZM 250.5058,392.8340 c 0.7038,2.3921 1.9410,5.7882 3.4619 9.0109c 0.9197,1.9584 2.7464,4.9517 4.4842 7.4533c -2.3699,-0.2062 -4.7339,-0.4192 -7.0815 -0.6273c -15.0914,-1.3534 -29.6378,-2.6535 -42.6440 -2.6680c -1.0591,-0.0000 -2.1094,0.0040 -3.1472 0.0139c 14.7836,-3.7319 29.3755,-8.3071 43.7080 -12.8009c 0.4066,-0.1297 0.8113,-0.2556 1.2188 -0.3824c 0.0000,-0.0000 0.0000,-0.0000 0.0000 -0.0000ZM 767.7826,1616.3808 Z"/></g><g fill="rgb(137,59,255)" stroke="rgb(0,0,0)" stroke-linecap="butt" stroke-width="1.586106262345201" font-size="2.67959494802722px" stroke-miterlimit="4.0" fill-opacity="1.0" stroke-opacity="0.0" stroke-linejoin="miter" opacity="1.0"><path d="M 767.7826,1616.3808 ZM 270.5703,386.6547 c 0.7958,3.6458 2.1550,7.6711 3.9014 11.4156c 1.7290,3.7116 5.2557,9.4349 8.2132 13.0285c -7.0622,-0.3804 -14.1708,-0.9342 -21.2155 -1.5402c -1.8926,-2.5267 -4.3477,-6.4097 -5.4213 -8.6924c -1.4986,-3.1869 -2.7087,-6.4939 -3.3583 -8.7176c 6.0118,-1.8829 11.9742,-3.7378 17.8805 -5.4939c 0.0000,-0.0000 0.0000,-0.0000 0.0000 -0.0000ZM 767.7826,1616.3808 Z"/></g><g fill="rgb(137,59,255)" stroke="rgb(0,0,0)" stroke-linecap="butt" stroke-width="1.586106262345201" font-size="2.67959494802722px" stroke-miterlimit="4.0" fill-opacity="1.0" stroke-opacity="0.0" stroke-linejoin="miter" opacity="1.0"><path d="M 767.7826,1616.3808 ZM 296.8237,379.6448 c 0.6138,4.4135 2.1956,9.2045 4.0718 13.6645c 2.6622,6.3235 6.8134,13.8872 9.3246 18.0993c -7.8918,0.3485 -16.0527,0.2304 -24.2969 -0.1491c -2.9129,-2.8520 -7.4029,-9.9606 -9.3604 -14.1611c -1.7038,-3.6565 -3.0253,-7.5811 -3.7746 -11.1010c 8.1242,-2.3825 16.1418,-4.5607 24.0356 -6.3526c 0.0000,-0.0000 0.0000,-0.0000 0.0000 -0.0000ZM 767.7826,1616.3808 Z"/></g><g fill="rgb(137,59,255)" stroke="rgb(0,0,0)" stroke-linecap="butt" stroke-width="1.586106262345201" font-size="2.67959494802722px" stroke-miterlimit="4.0" fill-opacity="1.0" stroke-opacity="0.0" stroke-linejoin="miter" opacity="1.0"><path d="M 767.7826,1616.3808 ZM 336.9265,407.8838 c -1.8335,-1.8752 -5.6826,-8.3458 -8.8986 -16.2483c -2.1075,-5.1725 -3.8743,-10.9171 -4.5316 -16.3393c 18.0799,-1.5606 35.3456,0.2875 51.5591 8.0496c -8.9586,13.2327 -22.3424,20.6521 -38.1289 24.5380c 0.0000,-0.0000 0.0000,-0.0000 0.0000 -0.0000ZM 767.7826,1616.3808 Z"/></g><g fill="rgb(137,59,255)" stroke="rgb(0,0,0)" stroke-linecap="butt" stroke-width="1.586106262345201" font-size="2.67959494802722px" stroke-miterlimit="4.0" fill-opacity="1.0" stroke-opacity="0.0" stroke-linejoin="miter" opacity="1.0"><path d="M 767.7826,1616.3808 ZM 321.1962,375.5102 c 0.6786,5.6642 2.5131,11.6334 4.6952 16.9947c 2.8133,6.9073 6.3109,12.8648 8.7137 15.9220c -6.9479,1.5373 -14.3344,2.4299 -21.9871 2.8626c -1.9913,-3.3137 -6.6449,-11.8619 -9.5966 -18.8728c -1.8365,-4.3651 -3.3757,-9.0351 -3.9372 -13.2753c 7.4891,-1.6303 14.8630,-2.8955 22.1120 -3.6313c 0.0000,-0.0000 0.0000,-0.0000 0.0000 -0.0000ZM 767.7826,1616.3808 Z"/></g><g fill="rgb(137,59,255)" stroke="rgb(0,0,0)" stroke-linecap="butt" stroke-width="1.586106262345201" font-size="2.67959494802722px" stroke-miterlimit="4.0" fill-opacity="1.0" stroke-opacity="0.0" fill-rule="evenodd" stroke-linejoin="miter" opacity="1.0"><path d="M 767.7826,1616.3808 ZM 279.4312,359.6094 c 3.3893,19.2271 -15.6578,38.5064 -15.1689 56.5070c 5.5316,0.2972 9.7699,-3.6565 11.1242 -3.8956c -0.9255,0.1626 -1.8839,4.8559 -2.4144 10.1445c 4.1347,-0.4443 8.7486,-5.2364 9.7650 -5.4155c 0.3233,3.0466 -1.1104,7.6062 -0.7619 8.9673c 33.2265,-15.5435 49.3867,-51.3626 48.5755 -62.8992c 0.0000,-0.0000 -51.1196,-3.4086 -51.1196 -3.4086c 0.0000,-0.0000 0.0000,-0.0000 0.0000 -0.0000ZM 767.7826,1616.3808 Z"/></g><g fill="rgb(35,31,32)" stroke="rgb(0,0,0)" stroke-linecap="butt" stroke-width="1.586106262345201" font-size="2.67959494802722px" stroke-miterlimit="4.0" fill-opacity="1.0" stroke-opacity="0.0" stroke-linejoin="miter" opacity="1.0"><path d="M 767.7826,1616.3808 ZM 297.8799,413.1618 c -5.6875,-1.1375 -11.2007,-3.1114 -16.0489 -6.1076c -4.0301,-2.4851 -7.6053,-5.6788 -10.4369 -9.6808c 0.8180,-1.8955 1.6883,-3.8075 2.5615 -5.7233c 7.0883,-15.5716 10.8967,-24.8149 4.3680 -40.6478c 1.0562,11.2114 -0.5228,22.4227 -8.5646 38.7398c -4.0553,8.9054 -8.0457,17.6704 -7.8085 26.4412c 0.0000,-0.0000 0.0591,2.1182 0.0591 2.1182c 3.3941,0.1820 6.1589,0.0853 9.3662 -1.3621c -0.4627,2.6584 -0.7106,5.3409 -0.9807 8.0264c 3.2295,-0.5092 5.0243,-1.2275 9.6925 -3.3331c -0.4502,2.8055 -0.3621,4.7707 0.3485 7.5501c 14.4912,-6.7795 26.1295,-15.8252 35.9265 -28.5100c 11.6712,-15.1147 17.5136,-28.2002 15.5513 -46.6567c -3.1617,14.8417 -6.0631,28.0783 -19.1980 43.8435c -4.1308,5.3458 -9.0748,10.6044 -14.8359 15.3025c 0.0000,-0.0000 0.0000,-0.0000 0.0000 -0.0000ZM 767.7826,1616.3808 Z"/></g><g fill="rgb(137,59,255)" stroke="rgb(0,0,0)" stroke-linecap="butt" stroke-width="1.586106262345201" font-size="2.67959494802722px" stroke-miterlimit="4.0" fill-opacity="1.0" stroke-opacity="0.0" stroke-linejoin="miter" opacity="1.0"><path d="M 767.7826,1616.3808 ZM 269.8617,401.0772 c 2.8829,3.6139 6.3342,6.5607 10.1513 8.9170c 4.3912,2.7116 9.2665,4.6429 14.3150 5.9101c 0.0000,-0.0000 -9.6363,6.0738 -9.6363 6.0738c 0.0000,-0.0000 0.0775,-7.7369 0.0775 -7.7369c 0.0000,-0.0000 -9.0525,4.7097 -9.0525 4.7097c 0.0000,-0.0000 -0.7222,-9.0119 -0.7222 -9.0119c 0.0000,-0.0000 -8.3633,3.7097 -8.3633 3.7097c 0.0000,-0.0000 3.2305,-12.5715 3.2305 -12.5715c 0.0000,-0.0000 0.0000,-0.0000 0.0000 -0.0000ZM 767.7826,1616.3808 Z"/></g><g fill="rgb(137,59,255)" stroke="rgb(0,0,0)" stroke-linecap="butt" stroke-width="1.586106262345201" font-size="2.67959494802722px" stroke-miterlimit="4.0" fill-opacity="1.0" stroke-opacity="0.0" fill-rule="evenodd" stroke-linejoin="miter" opacity="1.0"><path d="M 767.7826,1616.3808 ZM 163.0560,376.4550 c 0.5063,19.5156 -21.1903,35.7600 -23.3734 53.6327c 5.4251,1.1143 10.2046,-2.1666 11.5773 -2.2014c -0.9390,0.0232 -2.5799,4.5219 -3.8907 9.6740c 4.1560,0.1733 9.4301,-3.8830 10.4592 -3.9081c -0.1307,3.0601 -2.2247,7.3565 -2.0814 8.7544c 35.1627,-10.4456 56.4547,-43.4766 57.3618 -55.0055c 0.0000,-0.0000 -50.0528,-10.9461 -50.0528 -10.9461c 0.0000,-0.0000 0.0000,-0.0000 0.0000 -0.0000ZM 767.7826,1616.3808 Z"/></g><g fill="rgb(35,31,32)" stroke="rgb(0,0,0)" stroke-linecap="butt" stroke-width="1.586106262345201" font-size="2.67959494802722px" stroke-miterlimit="4.0" fill-opacity="1.0" stroke-opacity="0.0" stroke-linejoin="miter" opacity="1.0"><path d="M 767.7826,1616.3808 ZM 173.3651,432.1498 c -5.4561,-1.9681 -10.6131,-4.7388 -14.9656 -8.4175c -3.6168,-3.0582 -6.6798,-6.7446 -8.8880 -11.1213c 1.0930,-1.7561 2.2372,-3.5132 3.3825 -5.2809c 9.3197,-14.3479 14.4535,-22.9252 10.3459 -39.5529c -0.6186,11.2453 -3.8394,22.0994 -14.2124 37.0427c -5.3322,8.2074 -10.5763,16.2841 -11.6392 24.9930c 0.0000,-0.0000 -0.2566,2.1046 -0.2566 2.1046c 3.3292,0.6815 6.0776,0.9933 9.4640 0.0416c -0.8500,2.5596 -1.4957,5.1744 -2.1608 7.7892c 3.2702,-0.0232 5.1521,-0.4676 10.0806 -1.8558c -0.8606,2.7039 -1.0649,4.6633 -0.7735 7.5143c 15.3344,-4.5558 28.1838,-11.7767 39.7543 -22.8709c 13.7836,-13.2163 21.5001,-25.2912 22.2930 -43.8367c -5.3274,14.2124 -10.1552,26.8720 -25.4828 40.5172c -4.8772,4.6749 -10.5472,9.1416 -16.9414 12.9336c 0.0000,-0.0000 0.0000,-0.0000 0.0000 -0.0000ZM 767.7826,1616.3808 Z"/></g><g fill="rgb(137,59,255)" stroke="rgb(0,0,0)" stroke-linecap="butt" stroke-width="1.586106262345201" font-size="2.67959494802722px" stroke-miterlimit="4.0" fill-opacity="1.0" stroke-opacity="0.0" stroke-linejoin="miter" opacity="1.0"><path d="M 767.7826,1616.3808 ZM 147.4486,416.0467 c 2.3157,4.0011 5.2935,7.4261 8.7166 10.3207c 3.9430,3.3341 8.4775,5.9663 13.2831 7.9683c 0.0000,-0.0000 -10.4311,4.5790 -10.4311 4.5790c 0.0000,-0.0000 1.2227,-7.6401 1.2227 -7.6401c 0.0000,-0.0000 -9.6489,3.3157 -9.6489 3.3157c 0.0000,-0.0000 0.6205,-9.0196 0.6205 -9.0196c 0.0000,-0.0000 -8.8192,2.4308 -8.8192 2.4308c 0.0000,-0.0000 5.0563,-11.9548 5.0563 -11.9548c 0.0000,-0.0000 0.0000,-0.0000 0.0000 -0.0000ZM 767.7826,1616.3808 Z"/></g><g fill="rgb(137,59,255)" stroke="rgb(0,0,0)" stroke-linecap="butt" stroke-width="1.586106262345201" font-size="2.67959494802722px" stroke-miterlimit="4.0" fill-opacity="1.0" stroke-opacity="0.0" fill-rule="evenodd" stroke-linejoin="miter" opacity="1.0"><path d="M 767.7826,1616.3808 ZM 397.9206,284.8948 c -0.7086,1.1346 -1.0455,2.5102 -0.8616 3.9333c 0.4221,3.2828 3.4425,5.6158 6.7233 5.1938c 2.9991,-0.3843 5.2025,-2.9372 5.2402 -5.8772c 0.0000,-0.0000 -11.1020,-3.2499 -11.1020 -3.2499c 0.0000,-0.0000 0.0000,-0.0000 0.0000 -0.0000ZM 767.7826,1616.3808 Z"/></g><g fill="rgb(35,31,32)" stroke="rgb(0,0,0)" stroke-linecap="butt" stroke-width="1.586106262345201" font-size="2.67959494802722px" stroke-miterlimit="4.0" fill-opacity="1.0" stroke-opacity="0.0" fill-rule="evenodd" stroke-linejoin="miter" opacity="1.0"><path d="M 767.7826,1616.3808 ZM 268.5112,312.4667 c -3.7087,0.9100 -6.2732,3.5393 -5.7543 5.9624c 0.5373,2.4880 4.1357,3.8384 8.0157 3.0030c 1.6680,-0.3592 3.1240,-1.0668 4.1976 -1.9536c -0.1045,0.0262 -0.2091,0.0494 -0.3156 0.0726c -3.8781,0.8364 -7.4775,-0.5150 -8.0148 -3.0030c -0.3040,-1.4182 0.4482,-2.9081 1.8713 -4.0814c 0.0000,-0.0000 0.0000,-0.0000 0.0000 -0.0000ZM 767.7826,1616.3808 ZM 195.9496,357.4496 c -4.6120,1.8761 -7.3874,5.8201 -6.1861 8.7815c 1.2053,2.9575 5.9479,3.8442 10.5618 1.9662c 0.9826,-0.4018 1.8820,-0.8945 2.6787 -1.4531c -4.2073,1.2798 -8.2558,0.3078 -9.3565 -2.3950c -0.9458,-2.3282 0.5702,-5.2644 3.5054 -7.3255c -0.4008,0.1219 -0.8016,0.2614 -1.2033 0.4259c 0.0000,-0.0000 0.0000,-0.0000 0.0000 -0.0000ZM 767.7826,1616.3808 ZM 227.5894,355.8774 c -5.5500,1.8181 -9.1251,6.1967 -7.9683 9.7641c 1.1598,3.5771 6.6536,5.0205 12.2278 3.2102c 1.4628,-0.4734 2.7881,-1.1249 3.9324 -1.8955c -0.0178,0.0059 -0.0349,0.0119 -0.0494 0.0159c -5.5742,1.8103 -11.0671,0.3669 -12.2269 -3.2111c -0.8558,-2.6400 0.8771,-5.7223 4.0843 -7.8831c 0.0000,-0.0000 0.0000,-0.0000 0.0000 -0.0000ZM 767.7826,1616.3808 ZM 221.3423,336.0250 c -4.8898,3.2305 -7.1861,8.4214 -5.1144 11.5608c 2.0717,3.1385 7.7495,3.0650 12.6412 -0.1655c 0.0059,-0.0040 0.0119,-0.0079 0.0202 -0.0139c -3.7165,1.1878 -7.2403,0.6273 -8.7776 -1.7009c -2.0707,-3.1346 0.2168,-8.3158 5.0892 -11.5453c -1.2866,0.4124 -2.5993,1.0329 -3.8588 1.8645c 0.0000,-0.0000 0.0000,-0.0000 0.0000 -0.0000ZM 767.7826,1616.3808 ZM 248.7526,328.1816 c -4.8917,3.2295 -7.1890,8.4214 -5.1163 11.5609c 2.0727,3.1385 7.7505,3.0650 12.6403 -0.1655c 0.0079,-0.0019 0.0119,-0.0079 0.0198 -0.0119c -3.7145,1.1879 -7.2384,0.6273 -8.7757 -1.7028c -2.0688,-3.1327 0.2169,-8.3139 5.0911 -11.5453c -1.2905,0.4124 -2.6012,1.0329 -3.8588 1.8655c 0.0000,-0.0000 0.0000,-0.0000 0.0000 -0.0000ZM 767.7826,1616.3808 ZM 257.5341,351.4107 c -5.4968,2.0359 -8.9102,6.5733 -7.6033 10.1010c 1.3050,3.5258 6.8530,4.7417 12.3469 2.7048c 1.2159,-0.4521 2.3311,-1.0233 3.3157 -1.6806c -5.3061,1.7503 -10.5192,0.4986 -11.7796 -2.9062c -1.0184,-2.7455 0.8267,-6.1038 4.2876 -8.4165c -0.1897,0.0628 -0.3795,0.1269 -0.5673 0.1975c 0.0000,-0.0000 0.0000,-0.0000 0.0000 -0.0000ZM 767.7826,1616.3808 ZM 275.8715,327.8292 c -4.2692,1.2934 -7.1832,4.2228 -6.8656 7.2877c 0.3882,3.7407 5.4590,6.2974 11.2878 5.6923c 2.7155,-0.2807 5.1279,-1.2014 6.8918 -2.4812c -0.9439,0.2846 -1.9526,0.4908 -3.0088 0.6012c -5.8279,0.6051 -10.8987,-1.9526 -11.2878 -5.6933c -0.2072,-1.9971 0.9623,-3.9382 2.9827 -5.4067c 0.0000,-0.0000 0.0000,-0.0000 0.0000 -0.0000ZM 767.7826,1616.3808 ZM 294.7356,308.9196 c -4.2683,1.2934 -7.1851,4.2237 -6.8676 7.2877c 0.3892,3.7397 5.4590,6.2983 11.2878 5.6923c 2.7155,-0.2817 5.1299,-1.2004 6.8918 -2.4822c -0.9449,0.2865 -1.9517,0.4918 -3.0078 0.6012c -5.8288,0.6060 -10.8996,-1.9526 -11.2878 -5.6923c -0.2062,-1.9981 0.9623,-3.9391 2.9836 -5.4067c 0.0000,-0.0000 0.0000,-0.0000 0.0000 -0.0000ZM 767.7826,1616.3808 ZM 308.4146,326.9105 c -4.4900,1.4424 -7.5607,4.4774 -7.4145 7.8405c 0.1917,4.4938 6.0602,7.9160 13.0652 7.6149c 3.4793,-0.1481 6.5985,-1.1878 8.8347 -2.7474c -1.5102,0.4869 -3.1840,0.7929 -4.9517 0.8684c -7.0031,0.3001 -12.8736,-3.1230 -13.0672 -7.6179c -0.0958,-2.2624 1.2643,-4.3767 3.5335 -5.9585c 0.0000,-0.0000 0.0000,-0.0000 0.0000 -0.0000ZM 767.7826,1616.3808 ZM 325.5022,302.8701 c -4.8762,1.6119 -8.1638,5.0292 -7.7902 8.5937c 0.4685,4.4764 6.5394,7.5298 13.5115 6.7979c 3.0746,-0.3214 5.8211,-1.3263 7.8957 -2.7348c -1.2450,0.4134 -2.5935,0.7048 -4.0127 0.8548c -6.9740,0.7309 -13.0420,-2.3224 -13.5115 -6.7979c -0.2623,-2.5015 1.2769,-4.9295 3.9072 -6.7137c 0.0000,-0.0000 0.0000,-0.0000 0.0000 -0.0000ZM 767.7826,1616.3808 ZM 97.1897,388.9259 c -3.9672,1.1036 -6.6933,3.8442 -6.3061 6.5907c 0.4463,3.1405 4.7998,5.1376 9.6944 4.4444c 2.2411,-0.3175 4.2160,-1.1462 5.6575 -2.2508c -0.5683,0.1578 -1.1607,0.2827 -1.7745 0.3698c -4.8956,0.6941 -9.2481,-1.3030 -9.6944 -4.4435c -0.2410,-1.7028 0.7164,-3.4018 2.4231 -4.7107c 0.0000,-0.0000 0.0000,-0.0000 0.0000 -0.0000ZM 767.7826,1616.3808 ZM 122.7373,382.8531 c -3.3399,0.7483 -5.7068,2.9817 -5.3922 5.2209c 0.3456,2.4241 3.7020,3.9633 7.4804 3.4280c 1.9245,-0.2711 3.5945,-1.0349 4.7262 -2.0349c -0.2740,0.0611 -0.5566,0.1142 -0.8422 0.1539c -3.7784,0.5354 -7.1357,-1.0058 -7.4804 -3.4280c -0.1675,-1.1888 0.4211,-2.3747 1.5083 -3.3399c 0.0000,-0.0000 0.0000,-0.0000 0.0000 -0.0000ZM 767.7826,1616.3808 ZM 142.4775,375.5663 c -5.1473,2.0930 -8.2471,6.4958 -6.9034 9.8009c 1.3437,3.3011 6.6343,4.2886 11.7825 2.1937c 1.0136,-0.4124 1.9478,-0.9148 2.7852 -1.4812c -4.7833,1.5431 -9.4378,0.4744 -10.6857 -2.5925c -1.0784,-2.6525 0.7048,-6.0137 4.1144 -8.3187c -0.3650,0.1172 -0.7290,0.2498 -1.0930 0.3979c 0.0000,-0.0000 0.0000,-0.0000 0.0000 -0.0000ZM 767.7826,1616.3808 Z"/></g><g fill="rgb(35,31,32)" stroke="rgb(0,0,0)" stroke-linecap="butt" stroke-width="1.586106262345201" font-size="2.67959494802722px" stroke-miterlimit="4.0" fill-opacity="1.0" stroke-opacity="0.0" stroke-linejoin="miter" opacity="1.0"><path d="M 767.7826,1616.3808 ZM 423.6580,340.7289 c 2.4115,2.7126 4.7930,5.1250 6.7979 6.7514c 2.3244,1.8848 4.4435,2.7861 6.1096 2.1966c 0.0000,-0.0000 0.9032,-0.5644 0.9032 -0.5644c 1.0213,-0.9894 1.6457,-2.9275 1.9168 -5.5335c 0.2227,-2.1172 0.2720,-4.7765 0.1713 -7.7582c 1.5373,-0.4792 3.0775,-0.9632 4.6226 -1.4502c 1.3205,2.9449 2.6525,5.5771 3.8617 7.4920c 1.5867,2.5190 3.2683,4.0892 4.9643 4.1783c 0.0000,-0.0000 1.0668,-0.1790 1.0668 -0.1790c 1.5896,-0.6602 3.0678,-2.9565 4.3380 -6.3196c 1.0581,-2.7987 2.1211,-6.5491 3.0746 -10.7786c 0.4695,-0.1558 0.9323,-0.3127 1.3998 -0.4705c 1.0020,2.0242 1.9875,3.7871 2.8985 5.1173c 1.4105,2.0543 2.9052,3.3041 4.4493 3.3834c 0.0000,-0.0000 1.0707,-0.1763 1.0707 -0.1763c 1.4473,-0.6031 2.7823,-2.5131 3.9391 -5.3312c 0.8906,-2.1656 1.7851,-4.9963 2.6148 -8.2229c 0.9584,-0.3466 1.9110,-0.6970 2.8655 -1.0504c 1.3243,3.0233 2.6845,5.7940 3.9469 7.9025c 1.7232,2.8810 3.5441,4.7136 5.3496 4.8075c 0.0000,-0.0000 1.0707,-0.1763 1.0707 -0.1763c 1.7455,-0.7290 3.4077,-3.5664 4.8201 -7.6837c 1.1056,-3.2256 2.1985,-7.3990 3.1434 -11.9819c 2.0940,3.6235 4.2944,7.1019 6.2519 9.7011c 2.5170,3.3380 4.9788,5.4164 7.0176 5.1550c 0.0000,-0.0000 1.0155,-0.3746 1.0155 -0.3746c 1.7145,-1.0988 3.0253,-4.7397 3.8617 -9.7593c 0.6457,-3.8956 1.1191,-8.7999 1.3485 -14.0207c 0.7532,-0.3989 1.5063,-0.7967 2.2479 -1.2004c 3.6864,-2.0001 6.8608,-4.1405 9.5521 -6.3719c 6.7388,-5.5839 10.5385,-11.7816 11.9762 -17.8844c 0.0000,-0.0000 0.0016,0.0079 0.0016 0.0079c 1.4676,-6.2190 0.4753,-12.3005 -2.3670 -17.5378c -0.8296,-1.5325 -1.8181,-2.9885 -2.9420 -4.3467c -3.1027,-3.7407 -7.2771,-6.3225 -11.9626 -7.8579c -5.9595,-1.9536 -12.7632,-2.2295 -19.2097 -1.0659c -6.4532,1.1665 -12.6083,3.7949 -17.2483 7.6401c -3.0707,2.5441 -5.4813,5.6187 -6.9092 9.1590c -0.8984,0.2730 -1.7038,0.5276 -2.6148 0.8122c -14.3789,4.5171 -50.7130,15.9346 -65.5460 6.7495c -11.7622,-9.1242 -24.9455,-11.2569 -36.8781 -8.1145c -7.7185,2.0330 -14.8920,6.2761 -20.7867 12.2608c -5.8685,5.9576 -10.4805,13.6403 -13.1069 22.5767c -5.1686,17.5823 -2.6651,40.0380 13.0914 63.7027c 0.0000,-0.0000 1.4028,2.1095 1.4028 2.1095c 0.0000,-0.0000 2.0736,-1.4531 2.0736 -1.4531c 10.8871,-7.6314 35.5577,-15.2066 63.9128 -23.9107c 0.1404,-0.0426 0.2817,-0.0862 0.4221 -0.1297c 0.0000,-0.0000 0.0000,-0.0000 0.0000 -0.0000ZM 767.7826,1616.3808 Z"/></g><g fill="rgb(137,59,255)" stroke="rgb(0,0,0)" stroke-linecap="butt" stroke-width="1.586106262345201" font-size="2.67959494802722px" stroke-miterlimit="4.0" fill-opacity="1.0" stroke-opacity="0.0" stroke-linejoin="miter" opacity="1.0"><path d="M 767.7826,1616.3808 ZM 358.6232,359.3258 c -13.6519,-21.5321 -15.7739,-41.7224 -11.1291 -57.5360c 2.3892,-8.1280 6.5665,-15.0992 11.8755 -20.4856c 5.2789,-5.3603 11.6731,-9.1532 18.5378 -10.9606c 10.5511,-2.7774 22.2630,-0.8422 32.7406 7.3574c 0.0000,-0.0000 0.2159,0.1568 0.2159 0.1568c 16.7352,10.4417 54.6850,-1.4812 69.6952 -6.1977c 1.7251,-0.5421 3.1889,-1.0029 3.7329 -1.1636c 0.0000,-0.0000 1.2440,-0.3708 1.2440 -0.3708c 0.0000,-0.0000 0.4018,-1.2256 0.4018 -1.2256c 1.0320,-3.1414 3.0843,-5.8753 5.7988 -8.1241c 3.9633,-3.2847 9.3139,-5.5432 14.9898 -6.5684c 5.6855,-1.0281 11.6354,-0.8016 16.7885 0.8858c 3.8462,1.2614 7.2374,3.3331 9.6924 6.2983c 0.9313,1.1220 1.7387,2.3128 2.4154 3.5567c 2.2760,4.1976 3.0717,9.0700 1.8965 14.0488c 0.0000,-0.0000 0.0040,0.0099 0.0040 0.0099c -1.2024,5.0989 -4.4706,10.3498 -10.3149 15.1950c -2.4618,2.0398 -5.3719,4.0021 -8.7640 5.8424c -1.2866,0.6990 -2.5954,1.3902 -3.9236 2.0727c 0.0000,-0.0000 -0.8016,-0.0178 -0.8016 -0.0178c -0.0040,0.1433 -0.0079,0.2875 -0.0119 0.4318c -26.6929,13.5774 -61.4248,24.2398 -91.9165 33.6002c -27.0850,8.3149 -50.8553,15.6123 -63.1674 23.1943c 0.0000,-0.0000 0.0000,-0.0000 0.0000 -0.0000ZM 767.7826,1616.3808 Z"/></g><g fill="rgb(255,255,255)" stroke="rgb(0,0,0)" stroke-linecap="butt" stroke-width="1.586106262345201" font-size="2.67959494802722px" stroke-miterlimit="4.0" fill-opacity="1.0" stroke-opacity="0.0" stroke-linejoin="miter" opacity="1.0"><path d="M 767.7826,1616.3808 ZM 455.9687,330.5873 c -0.7038,2.7862 -1.4463,5.2499 -2.1898 7.2103c -0.3843,1.0204 -0.7183,1.8500 -0.9845 2.4454c -0.1374,-0.2778 -0.3224,-0.6147 -0.5683 -1.0029c -1.0291,-1.6351 -2.1666,-3.8617 -3.3128 -6.3719c 2.3486,-0.7512 4.7000,-1.5092 7.0554 -2.2808c 0.0000,-0.0000 0.0000,-0.0000 0.0000 -0.0000ZM 767.7826,1616.3808 Z"/></g><g fill="rgb(255,255,255)" stroke="rgb(0,0,0)" stroke-linecap="butt" stroke-width="1.586106262345201" font-size="2.67959494802722px" stroke-miterlimit="4.0" fill-opacity="1.0" stroke-opacity="0.0" stroke-linejoin="miter" opacity="1.0"><path d="M 767.7826,1616.3808 ZM 472.1648,325.1021 c -0.4976,1.6593 -0.9971,3.1163 -1.4909 4.3147c -0.2381,0.5837 -0.4502,1.0823 -0.6312 1.4821c -0.0464,-0.0853 -0.1045,-0.1780 -0.1723 -0.2749c -0.6970,-1.0165 -1.4628,-2.3679 -2.2566 -3.9401c 1.5189,-0.5228 3.0378,-1.0484 4.5510 -1.5818c 0.0000,-0.0000 0.0000,-0.0000 0.0000 -0.0000ZM 767.7826,1616.3808 Z"/></g><g fill="rgb(255,255,255)" stroke="rgb(0,0,0)" stroke-linecap="butt" stroke-width="1.586106262345201" font-size="2.67959494802722px" stroke-miterlimit="4.0" fill-opacity="1.0" stroke-opacity="0.0" stroke-linejoin="miter" opacity="1.0"><path d="M 767.7826,1616.3808 ZM 513.4564,308.1752 c -0.2488,3.9624 -0.6370,7.6266 -1.1375 10.6295c -0.3998,2.4076 -0.7870,4.2799 -1.1336 5.3680c -0.4279,-0.5596 -1.0988,-1.4492 -1.9313 -2.5557c -1.7609,-2.3369 -3.7639,-5.4852 -5.6981 -8.8154c 3.3883,-1.5034 6.6962,-3.0437 9.9006 -4.6265c 0.0000,-0.0000 0.0000,-0.0000 0.0000 -0.0000ZM 767.7826,1616.3808 Z"/></g><g fill="rgb(255,255,255)" stroke="rgb(0,0,0)" stroke-linecap="butt" stroke-width="1.586106262345201" font-size="2.67959494802722px" stroke-miterlimit="4.0" fill-opacity="1.0" stroke-opacity="0.0" stroke-linejoin="miter" opacity="1.0"><path d="M 767.7826,1616.3808 ZM 493.5197,317.0593 c -0.7251,3.1201 -1.4995,5.9266 -2.2818 8.2016c -0.5615,1.6360 -1.0455,2.9217 -1.4202 3.7358c -0.2188,-0.4076 -0.5160,-0.9545 -0.9119 -1.6138c -1.1007,-1.8403 -2.3234,-4.3351 -3.5471 -7.1144c 2.7503,-1.0504 5.4726,-2.1191 8.1609 -3.2092c 0.0000,-0.0000 0.0000,-0.0000 0.0000 -0.0000ZM 767.7826,1616.3808 Z"/></g><g fill="rgb(255,255,255)" stroke="rgb(0,0,0)" stroke-linecap="butt" stroke-width="1.586106262345201" font-size="2.67959494802722px" stroke-miterlimit="4.0" fill-opacity="1.0" stroke-opacity="0.0" stroke-linejoin="miter" opacity="1.0"><path d="M 767.7826,1616.3808 ZM 434.6312,337.3513 c 0.0426,2.2615 -0.0059,4.2102 -0.1636 5.7281c -0.0523,0.4928 -0.1017,0.9197 -0.1521 1.2759c -0.1840,-0.2052 -0.4240,-0.4492 -0.7445 -0.7086c -1.3398,-1.0862 -2.9546,-2.6690 -4.6778 -4.5248c 1.8994,-0.5847 3.8133,-1.1743 5.7378 -1.7706c 0.0000,-0.0000 0.0000,-0.0000 0.0000 -0.0000ZM 767.7826,1616.3808 Z"/></g><g fill="rgb(35,31,32)" stroke="rgb(0,0,0)" stroke-linecap="butt" stroke-width="1.586106262345201" font-size="2.67959494802722px" stroke-miterlimit="4.0" fill-opacity="1.0" stroke-opacity="0.0" fill-rule="evenodd" stroke-linejoin="miter" opacity="1.0"><path d="M 767.7826,1616.3808 ZM 525.7549,263.6424 c -2.7135,-1.3863 -12.9510,-6.0989 -19.1429 -5.1047c -6.5142,1.0465 -8.4426,8.3255 4.4067 5.6739c 0.0000,-0.0000 6.3138,-1.3030 6.3138 -1.3030c 0.0000,-0.0000 8.4223,0.7338 8.4223 0.7338c 0.0000,-0.0000 0.0000,-0.0000 0.0000 -0.0000ZM 767.7826,1616.3808 Z"/></g><g fill="rgb(35,31,32)" stroke="rgb(0,0,0)" stroke-linecap="butt" stroke-width="1.586106262345201" font-size="2.67959494802722px" stroke-miterlimit="4.0" fill-opacity="1.0" stroke-opacity="0.0" stroke-linejoin="miter" opacity="1.0"><path d="M 767.7826,1616.3808 ZM 369.2441,277.8384 c -2.3040,4.5868 -3.3147,9.8803 -2.6138 15.3354c 1.8703,14.5813 15.2899,24.9465 29.8711 23.0742c 7.2916,-0.9352 13.5290,-4.7591 17.7082 -10.1707c 3.8191,-4.9440 5.9198,-11.2201 5.5394 -17.8292c 0.0000,-0.0000 -40.3245,-11.8009 -40.3245 -11.8009c 0.0000,-0.0000 0.9332,5.2015 0.9332 5.2015c 0.0000,-0.0000 -11.1136,-3.8104 -11.1136 -3.8104c 0.0000,-0.0000 0.0000,-0.0000 0.0000 -0.0000ZM 767.7826,1616.3808 Z"/></g><g fill="rgb(255,255,255)" stroke="rgb(0,0,0)" stroke-linecap="butt" stroke-width="1.586106262345201" font-size="2.67959494802722px" stroke-miterlimit="4.0" fill-opacity="1.0" stroke-opacity="0.0" fill-rule="evenodd" stroke-linejoin="miter" opacity="1.0"><path d="M 767.7826,1616.3808 ZM 374.4543,281.7562 c -1.8907,3.6971 -2.7271,7.9789 -2.1598 12.3943c 1.4957,11.6586 12.2269,19.9473 23.8855 18.4507c 11.2917,-1.4492 19.4207,-11.5579 18.5639 -22.7829c 0.0000,-0.0000 -32.7860,-9.5947 -32.7860 -9.5947c 0.0000,-0.0000 0.7842,4.3738 0.7842 4.3738c 0.0000,-0.0000 -8.2878,-2.8413 -8.2878 -2.8413c 0.0000,-0.0000 0.0000,-0.0000 0.0000 -0.0000ZM 767.7826,1616.3808 Z"/></g><g fill="rgb(35,31,32)" stroke="rgb(0,0,0)" stroke-linecap="butt" stroke-width="1.586106262345201" font-size="2.67959494802722px" stroke-miterlimit="4.0" fill-opacity="1.0" stroke-opacity="0.0" fill-rule="evenodd" stroke-linejoin="miter" opacity="1.0"><path d="M 767.7826,1616.3808 ZM 400.4676,289.6161 c -0.2401,-1.8684 -0.7377,-3.6303 -1.3882 -5.2509c 0.0000,-0.0000 -11.6538,-3.4096 -11.6538 -3.4096c -1.0126,2.9701 -1.6922,6.6507 -1.2014 10.4872c 1.1578,9.0080 8.2258,15.5677 9.2210 15.4390c 0.9981,-0.1277 6.1802,-8.2606 5.0224 -17.2658c 0.0000,-0.0000 0.0000,-0.0000 0.0000 -0.0000ZM 767.7826,1616.3808 Z"/></g><g fill="rgb(35,31,32)" stroke="rgb(0,0,0)" stroke-linecap="butt" stroke-width="1.586106262345201" font-size="2.67959494802722px" stroke-miterlimit="4.0" fill-opacity="1.0" stroke-opacity="0.0" stroke-linejoin="miter" opacity="1.0"><path d="M 767.7826,1616.3808 ZM 453.1932,386.5560 c -1.1830,-4.3457 -2.5306,-8.3332 -3.8597 -11.3856c -1.6128,-3.6990 -3.4086,-6.2403 -5.1792 -6.8560c 0.0000,-0.0000 -0.9497,-0.1356 -0.9497 -0.1356c -1.8771,0.1085 -3.7697,2.0291 -5.5394 4.9730c -0.5605,0.9332 -1.1327,1.9884 -1.7096 3.1250c -0.1297,-1.3205 -0.2875,-2.5441 -0.4743 -3.6458c -0.5925,-3.4890 -1.6090,-6.0273 -3.0504 -7.0167c 0.0000,-0.0000 -0.8887,-0.3804 -0.8887 -0.3804c -1.7881,-0.3785 -4.0282,0.8897 -6.4174 3.1366c -1.8132,1.7048 -3.8568,4.0117 -5.8734 6.5181c -6.0283,-4.7939 -11.7864,-11.6238 -17.6007 -18.5272c -3.6574,-4.3370 -7.3342,-8.6992 -11.1659 -12.6722c -7.5714,-7.8444 -14.2289,-12.6006 -20.0132 -14.8252c -5.4939,-2.1153 -10.2656,-2.0136 -14.3412 -0.1364c -3.9943,1.8461 -7.1861,5.3748 -9.6218 10.1774c -3.4280,6.7533 -5.3825,16.1379 -5.9924 26.8556c -0.1713,2.9933 -0.1336,5.8501 0.0977 8.5743c 1.2691,14.8949 8.3594,25.3202 19.3248 32.2643c 10.7109,6.7814 25.0714,10.1474 41.2335 11.0671c 9.0739,0.5189 18.7479,0.2653 28.6736 -0.5809c 12.2840,-1.0484 21.0277,0.6167 31.2091 2.5519c 9.4562,1.7968 20.1177,3.8239 35.6884 4.2402c 13.3895,0.3601 22.3772,-3.3118 26.7404 -8.2151c 1.8897,-2.1230 2.9642,-4.4842 3.2111 -6.8986c 0.2546,-2.4502 -0.3427,-4.9179 -1.8026 -7.2074c -1.8636,-2.9275 -5.2034,-5.5500 -10.0177 -7.3778c 0.1209,-3.6226 0.0474,-6.9198 -0.2352 -9.5308c -0.3659,-3.3786 -1.2014,-5.8743 -2.5470 -6.9363c 0.0000,-0.0000 -0.8625,-0.4366 -0.8625 -0.4366c -2.0020,-0.5673 -4.8501,1.0562 -7.9286 3.8230c -2.8762,2.5829 -6.2209,6.2238 -9.1842 9.7815c -0.0571,-0.0040 -0.1162,-0.0099 -0.1763 -0.0139c -1.1182,-3.8075 -2.3437,-7.2325 -3.5422 -9.8531c -1.5102,-3.3021 -3.1831,-5.5539 -4.8588 -6.1357c 0.0000,-0.0000 -0.9478,-0.1356 -0.9478 -0.1356c -1.9139,0.1104 -3.8472,2.1094 -5.6526 5.1531c -1.1559,1.9478 -2.3747,4.4261 -3.5470 7.0912c -0.9478,-3.0582 -1.9594,-5.8279 -2.9546 -8.0583c -1.5596,-3.4977 -3.2944,-5.8898 -5.0156 -6.4900c 0.0000,-0.0000 -0.9497,-0.1346 -0.9497 -0.1346c -1.9284,0.1114 -3.8878,2.1559 -5.7146 5.2606c -1.4986,2.5490 -3.0998,5.9682 -4.5654 9.5201c -0.9894,-0.1655 -1.9875,-0.3398 -2.9991 -0.5276c 0.0000,-0.0000 0.0000,-0.0000 0.0000 -0.0000ZM 767.7826,1616.3808 Z"/></g><g fill="rgb(137,59,255)" stroke="rgb(0,0,0)" stroke-linecap="butt" stroke-width="1.586106262345201" font-size="2.67959494802722px" stroke-miterlimit="4.0" fill-opacity="1.0" stroke-opacity="0.0" stroke-linejoin="miter" opacity="1.0"><path d="M 767.7826,1616.3808 ZM 386.9319,347.1192 c 3.7107,3.8433 7.3352,8.1435 10.9384 12.4186c 9.4485,11.2123 18.7576,22.2611 30.0367 25.7617c 23.3347,7.2403 37.6691,8.3371 56.1265 9.7496c 6.0505,0.4637 12.5493,0.9603 19.9541 1.7232c 8.9586,0.9216 14.4951,3.9081 16.7469 7.4426c 0.8306,1.3059 1.1772,2.6922 1.0349 4.0495c -0.1433,1.3940 -0.8016,2.8026 -1.9700 4.1134c -3.4938,3.9294 -11.1368,6.8589 -22.9213 6.5413c -15.3315,-0.4105 -25.6997,-2.3815 -34.9013 -4.1318c -10.5608,-2.0068 -19.6308,-3.7319 -32.5431 -2.6313c -9.6789,0.8248 -19.1138,1.0697 -27.9718 0.5663c -15.3925,-0.8780 -28.9544,-4.0108 -38.8753 -10.2946c -9.6673,-6.1202 -15.9192,-15.3296 -17.0431 -28.5062c -0.2091,-2.4667 -0.2401,-5.0882 -0.0833 -7.8734c 0.5750,-10.0758 2.3592,-18.7934 5.4687 -24.9213c 1.9284,-3.8007 4.3506,-6.5471 7.2868 -7.9005c 2.8587,-1.3195 6.3370,-1.3389 10.4833 0.2556c 5.1434,1.9797 11.2007,6.3487 18.2329 13.6374c 0.0000,-0.0000 0.0000,-0.0000 0.0000 -0.0000ZM 767.7826,1616.3808 Z"/></g><g fill="rgb(255,255,255)" stroke="rgb(0,0,0)" stroke-linecap="butt" stroke-width="1.586106262345201" font-size="2.67959494802722px" stroke-miterlimit="4.0" fill-opacity="1.0" stroke-opacity="0.0" stroke-linejoin="miter" opacity="1.0"><path d="M 767.7826,1616.3808 ZM 500.1743,391.4187 c 2.2034,-2.5122 4.4619,-4.8801 6.4281 -6.6459c 1.1898,-1.0688 2.1491,-1.9052 2.7193 -2.3621c 0.1336,0.6225 0.2662,1.5693 0.3969 2.7678c 0.2227,2.0688 0.3021,4.6584 0.2411 7.5423c -1.6942,-0.3785 -3.5180,-0.6747 -5.4716 -0.8752c -1.4734,-0.1521 -2.9110,-0.2943 -4.3138 -0.4269c 0.0000,-0.0000 0.0000,-0.0000 0.0000 -0.0000ZM 767.7826,1616.3808 Z"/></g><g fill="rgb(255,255,255)" stroke="rgb(0,0,0)" stroke-linecap="butt" stroke-width="1.586106262345201" font-size="2.67959494802722px" stroke-miterlimit="4.0" fill-opacity="1.0" stroke-opacity="0.0" stroke-linejoin="miter" opacity="1.0"><path d="M 767.7826,1616.3808 ZM 479.5822,389.7371 c 1.1956,-2.7716 2.4473,-5.3554 3.6148 -7.3265c 0.5566,-0.9352 1.0039,-1.6825 1.2972 -2.1559c 0.3630,0.6012 0.8451,1.5654 1.4124 2.8016c 0.9090,1.9952 1.8500,4.5297 2.7426 7.3826c -1.4376,-0.1132 -2.8462,-0.2207 -4.2334 -0.3262c -1.6399,-0.1259 -3.2489,-0.2507 -4.8336 -0.3756c 0.0000,-0.0000 0.0000,-0.0000 0.0000 -0.0000ZM 767.7826,1616.3808 Z"/></g><g fill="rgb(255,255,255)" stroke="rgb(0,0,0)" stroke-linecap="butt" stroke-width="1.586106262345201" font-size="2.67959494802722px" stroke-miterlimit="4.0" fill-opacity="1.0" stroke-opacity="0.0" stroke-linejoin="miter" opacity="1.0"><path d="M 767.7826,1616.3808 ZM 461.2235,387.8532 c 1.2498,-2.9401 2.5674,-5.7010 3.7978 -7.7902c 0.5809,-0.9894 1.0513,-1.7745 1.3534 -2.2643c 0.3969,0.6515 0.9284,1.7329 1.5538 3.1317c 0.9681,2.1695 1.9652,4.9411 2.9023 8.0477c -3.2024,-0.3137 -6.3748,-0.6747 -9.6073 -1.1249c 0.0000,-0.0000 0.0000,-0.0000 0.0000 -0.0000ZM 767.7826,1616.3808 Z"/></g><g fill="rgb(255,255,255)" stroke="rgb(0,0,0)" stroke-linecap="butt" stroke-width="1.586106262345201" font-size="2.67959494802722px" stroke-miterlimit="4.0" fill-opacity="1.0" stroke-opacity="0.0" stroke-linejoin="miter" opacity="1.0"><path d="M 767.7826,1616.3808 ZM 438.2141,383.1435 c 1.2275,-2.8520 2.5103,-5.4919 3.6903 -7.4562c 0.5208,-0.8674 0.9391,-1.5586 1.2150 -2.0049c 0.4298,0.7019 1.0107,1.8955 1.6874 3.4512c 0.9875,2.2653 1.9971,5.1376 2.9420 8.3294c -3.0330,-0.6573 -6.1928,-1.4211 -9.5347 -2.3195c 0.0000,-0.0000 0.0000,-0.0000 0.0000 -0.0000ZM 767.7826,1616.3808 Z"/></g><g fill="rgb(255,255,255)" stroke="rgb(0,0,0)" stroke-linecap="butt" stroke-width="1.586106262345201" font-size="2.67959494802722px" stroke-miterlimit="4.0" fill-opacity="1.0" stroke-opacity="0.0" stroke-linejoin="miter" opacity="1.0"><path d="M 767.7826,1616.3808 ZM 423.3047,377.7542 c 1.8548,-2.2973 3.6690,-4.3515 5.2063 -5.7988c 0.6331,-0.5963 1.1491,-1.0775 1.5005 -1.4047c 0.1830,0.6525 0.3853,1.6477 0.6002 2.9072c 0.3621,2.1278 0.6060,4.7804 0.7319 7.7243c -0.6554,-0.1965 -1.3146,-0.3998 -1.9836 -0.6070c -2.0601,-0.6409 -4.0746,-1.6031 -6.0553 -2.8210c 0.0000,-0.0000 0.0000,-0.0000 0.0000 -0.0000ZM 767.7826,1616.3808 Z"/></g><g fill="rgb(35,31,32)" stroke="rgb(0,0,0)" stroke-linecap="butt" stroke-width="1.7623402914946675" font-size="2.67959494802722px" stroke-miterlimit="4.0" fill-opacity="1.0" stroke-opacity="0.0" stroke-linejoin="miter" opacity="1.0"><path d="M 819.7585,1549.7174 ZM 354.1212,78.7958 c -3.4356,-6.0086 -6.3915,-9.1484 -9.6485 -9.5388c -3.3033,-0.3958 -6.1968,1.8759 -9.4162 6.7002c -1.2198,-0.0463 -2.4482,-0.0667 -3.6852 -0.0679c -3.1581,-6.2893 -5.9279,-9.5001 -9.3786 -9.5184c 0.0000,-0.0000 -0.0088,-0.0000 -0.0088 -0.0000c -3.6367,-0.0176 -6.9874,3.6938 -11.3567 11.2792c -0.6938,0.1119 -1.3897,0.2291 -2.0867 0.3507c -5.4460,-6.3183 -9.3119,-9.2280 -12.7798 -8.6407c -3.8379,0.6497 -6.0806,5.0824 -8.2255 13.4101c 0.0000,-0.0000 0.3367,0.0850 0.3367 0.0850c -0.7282,0.2108 -1.4564,0.4259 -2.1825 0.6454c 0.0000,-0.0000 0.5400,-0.4819 0.5400 -0.4819c -4.7877,-5.3976 -8.4826,-7.7371 -12.0612 -6.6787c -4.6866,1.3833 -7.9092,9.6399 -8.4395 14.0447c -1.0380,0.4012 -2.0749,0.8068 -3.1043 1.2187c 0.0000,-0.0000 -1.6920,-0.8336 -1.6920 -0.8336c -5.9849,-4.0089 -10.1315,-5.4191 -13.2843 -3.9455c -2.4191,2.2191 -4.0401,6.9960 -5.1136 13.5198c -3.1947,1.4994 -8.2685,-10.4327 -15.9959 -6.1893c -3.3162,1.8211 -4.5747,7.1391 -5.0222 16.7779c 0.0000,-0.0000 0.0220,0.0011 0.0220 0.0011c -0.0872,0.0452 -0.1743,0.0925 -0.2614 0.1399c -7.3542,-3.7626 -12.0924,-4.8770 -15.2236 -2.8462c -3.0183,1.9588 -3.8540,6.2883 -3.4098 13.4370c -0.2818,0.1679 -0.5604,0.3378 -0.8401 0.5045c -7.2499,-4.3047 -11.9375,-5.9795 -15.1365 -4.1273c -3.2183,1.8620 -4.0132,6.6712 -3.3969 15.2785c -0.8713,0.4916 -1.7522,0.9810 -2.6375 1.4672c -6.3581,-3.6357 -10.6478,-4.8178 -13.7124 -3.1925c -3.1248,1.6586 -4.2983,5.7149 -4.3833 12.5270c -0.5002,0.2431 -1.0036,0.4851 -1.5070 0.7282c -6.3947,-4.3069 -10.7091,-6.1269 -13.8984 -4.7856c -3.3259,1.4016 -4.5812,5.6117 -4.6845 13.2843c -1.0122,0.4399 -2.0276,0.8809 -3.0473 1.3198c -7.1068,-4.4532 -11.8181,-6.1807 -15.1623 -4.7952c -3.5249,1.4607 -4.8458,5.6869 -5.0071 13.0702c -0.4163,0.1657 -0.8315,0.3281 -1.2478 0.4894c -6.2871,-4.4048 -10.5704,-6.3807 -13.7812 -5.3083c -3.4410,1.1520 -4.8651,5.0964 -5.1599 12.4334c -0.1817,0.0679 -0.3647,0.1324 -0.5464 0.1989c -5.5891,-4.5629 -9.5808,-6.3560 -12.8561 -5.1717c -3.2958,1.1929 -5.0997,5.0717 -6.3162 11.8450c -0.4324,0.1441 -0.8637,0.2872 -1.2940 0.4324c -5.8763,-5.6547 -9.9627,-8.2674 -13.4402 -7.2606c -3.5410,1.0262 -5.4342,5.4148 -6.8303 13.7360c -9.6626,2.9505 -18.8690,5.5686 -27.3279 7.7877c 0.0000,-0.0000 -0.4303,4.8049 -0.4303 4.8049c 48.0771,22.0486 75.4212,20.3276 109.9935 16.8306c 7.2359,-0.3485 14.4438,-1.0799 21.6205 -2.1147c 11.0781,-0.9594 23.1985,-1.6995 36.9829 -1.6834c 14.1727,0.0110 30.2418,1.4521 46.9176 2.9430c 63.6310,5.6955 135.8672,12.1602 152.8473 -54.9925c 2.3127,-9.1355 2.5332,-18.2957 0.8616 -27.2612c -1.7114,-9.1839 -5.4008,-18.1365 -10.8522 -26.6255c -8.6590,-13.4790 -20.5234,-21.3882 -34.2497 -25.2315c 0.0000,-0.0000 0.0000,-0.0000 0.0000 -0.0000ZM 819.7585,1549.7174 Z"/></g><g fill="rgb(255,255,255)" stroke="rgb(0,0,0)" stroke-linecap="butt" stroke-width="1.7623402914946675" font-size="2.67959494802722px" stroke-miterlimit="4.0" fill-opacity="1.0" stroke-opacity="0.0" stroke-linejoin="miter" opacity="1.0"><path d="M 819.7585,1549.7174 ZM 167.7417,141.5533 c 0.1635,-3.1409 0.6325,-4.9361 1.5705 -5.4320c 1.0100,-0.5357 2.9419,0.0021 5.9644 1.5554c -2.4600,1.3015 -4.9792,2.5934 -7.5349 3.8766c 0.0000,-0.0000 0.0000,-0.0000 0.0000 -0.0000ZM 819.7585,1549.7174 ZM 147.6271,151.0621 c 0.1322,-3.8530 0.5712,-5.8860 1.4919 -6.2753c 1.0326,-0.4324 3.1452,0.5013 6.4937 2.6289c -2.6257,1.2273 -5.2922,2.4439 -7.9856 3.6464c 0.0000,-0.0000 0.0000,-0.0000 0.0000 -0.0000ZM 819.7585,1549.7174 ZM 124.3952,160.8946 c 0.1765,-3.7680 0.6981,-5.8386 1.7856 -6.2936c 1.2671,-0.5217 3.6583,0.3485 7.4252 2.5224c -3.0516,1.2747 -6.1226,2.5332 -9.2108 3.7712c 0.0000,-0.0000 0.0000,-0.0000 0.0000 -0.0000ZM 819.7585,1549.7174 ZM 104.2376,168.6575 c 0.2172,-3.5399 0.6906,-5.3750 1.5812 -5.6719c 1.0810,-0.3614 3.1560,0.5884 6.3646 2.6859c -2.6450,1.0111 -5.2976,2.0082 -7.9458 2.9860c 0.0000,-0.0000 0.0000,-0.0000 0.0000 -0.0000ZM 819.7585,1549.7174 ZM 84.9018,175.5395 c 0.6917,-3.0699 1.4575,-4.7802 2.4718 -5.1481c 1.0423,-0.3743 2.8021,0.4335 5.4449 2.3944c -2.6493,0.9380 -5.2890,1.8533 -7.9168 2.7537c 0.0000,-0.0000 0.0000,-0.0000 0.0000 -0.0000ZM 819.7585,1549.7174 ZM 63.2382,182.6431 c 0.8379,-4.4919 1.6759,-6.8088 2.7709 -7.1219c 1.1273,-0.3281 3.2237,1.1154 6.5077 4.1606c -3.1280,1.0143 -6.2205,2.0018 -9.2785 2.9613c 0.0000,-0.0000 0.0000,-0.0000 0.0000 -0.0000ZM 819.7585,1549.7174 ZM 226.7968,108.1502 c 0.3765,-5.7569 0.9950,-8.8386 2.1889 -9.4937c 1.0929,-0.6002 3.6647,0.9293 8.0265 4.3359c -3.5055,1.7113 -6.9143,3.4367 -10.2154 5.1577c 0.0000,-0.0000 0.0000,-0.0000 0.0000 -0.0000ZM 819.7585,1549.7174 ZM 207.6288,118.7206 c -0.0967,-3.5217 0.2409,-5.5611 1.1972 -6.1839c 1.0455,-0.6777 3.2839,-0.1291 6.9465 1.5511c -2.8397,1.5801 -5.5600,3.1291 -8.1437 4.6328c 0.0000,-0.0000 0.0000,-0.0000 0.0000 -0.0000ZM 819.7585,1549.7174 ZM 188.2123,130.4785 c -0.2635,-4.8340 -0.0044,-7.4177 1.0143 -8.0071c 1.0466,-0.6045 3.5249,0.3819 7.6306 2.7182c -0.7594,0.4711 -1.5005,0.9337 -2.2201 1.3833c -2.0749,1.3048 -4.2208,2.6095 -6.4248 3.9057c 0.0000,-0.0000 0.0000,-0.0000 0.0000 -0.0000ZM 819.7585,1549.7174 ZM 340.9951,76.3627 c 1.1531,-1.4371 2.0911,-2.1169 2.8816 -2.0222c 0.9218,0.1108 1.9846,1.0627 3.2732 2.8731c -2.0211,-0.3603 -4.0756,-0.6389 -6.1548 -0.8508c 0.0000,-0.0000 0.0000,-0.0000 0.0000 -0.0000ZM 819.7585,1549.7174 ZM 317.1039,76.7467 c 2.1997,-3.5346 3.7379,-5.2718 4.8705 -5.2653c 0.0000,-0.0000 -0.0088,-0.0000 -0.0088 -0.0000c 0.9842,0.0044 2.1803,1.5371 3.7723 4.5435c -2.8472,0.1388 -5.7289,0.3840 -8.6332 0.7218c 0.0000,-0.0000 0.0000,-0.0000 0.0000 -0.0000ZM 819.7585,1549.7174 ZM 271.5147,88.2142 c 1.5263,-4.2907 2.8010,-6.5797 4.0950 -6.9605c 1.1112,-0.3270 2.8580,0.9315 5.4514 3.6873c -3.1947,1.0283 -6.3818,2.1244 -9.5464 3.2732c 0.0000,-0.0000 0.0000,-0.0000 0.0000 -0.0000ZM 819.7585,1549.7174 ZM 293.2170,81.3784 c 1.2553,-4.4392 2.2858,-6.7604 3.3958 -6.9476c 1.1671,-0.1969 3.1108,1.3650 6.1172 4.6909c -3.1581,0.6648 -6.3366,1.4209 -9.5130 2.2567c 0.0000,-0.0000 0.0000,-0.0000 0.0000 -0.0000ZM 819.7585,1549.7174 ZM 247.7257,97.9477 c 0.3958,-3.8368 1.0186,-5.9774 2.0835 -6.4754c 1.1251,-0.5260 3.3119,0.3582 6.8164 2.5880c -3.0054,1.2650 -5.9763,2.5643 -8.8999 3.8874c 0.0000,-0.0000 0.0000,-0.0000 0.0000 -0.0000ZM 819.7585,1549.7174 Z"/></g><g fill="rgb(106,161,33)" stroke="rgb(0,0,0)" stroke-linecap="butt" stroke-width="1.7623402914946675" font-size="2.67959494802722px" stroke-miterlimit="4.0" fill-opacity="1.0" stroke-opacity="0.0" stroke-linejoin="miter" opacity="1.0"><path d="M 819.7585,1549.7174 ZM 336.6925,81.1827 c 0.0000,-0.0000 0.8390,0.4873 0.8390 0.4873c 0.0828,-0.1421 0.1668,-0.2786 0.2442 -0.4163c 4.4715,0.3141 8.8042,0.9616 12.9583 1.9899c 0.0989,0.1861 0.1989,0.3733 0.2990 0.5647c 0.0000,-0.0000 0.6207,-0.3281 0.6207 -0.3281c 13.0766,3.4378 24.3258,10.7188 32.4071 23.3007c 5.1061,7.9533 8.5536,16.2928 10.1391 24.8001c 1.5339,8.2362 1.3263,16.6628 -0.7992 25.0830c -1.7823,7.0423 -4.2434,13.2122 -7.2897 18.6205c -43.3895,-21.0730 -92.1711,-5.7751 -143.9786 10.4725c -26.4469,8.2932 -53.6909,16.8382 -81.2931 20.8106c -5.9419,0.5163 -11.5675,1.0896 -16.9909 1.6457c -1.3639,0.1388 -2.7117,0.2764 -4.0487 0.4130c -1.3553,0.0645 -2.7106,0.1194 -4.0649 0.1560c 0.0000,-0.0000 0.0044,0.2495 0.0044 0.2495c -30.4623,2.9774 -55.8756,3.8250 -97.0137 -13.8382c 25.5133,-7.0078 56.5328,-17.1555 86.2895 -29.0403c 26.7331,-10.6737 52.4711,-22.7586 72.3373 -35.2457c 24.7883,-15.5797 75.2275,-43.5347 119.4829 -48.9645c 3.8379,-0.4711 7.6274,-0.7691 11.3481 -0.8756c 0.0132,0.0322 0.0247,0.0612 0.0399 0.0925c 0.0000,-0.0000 0.2183,-0.0978 0.2183 -0.0978c 2.7935,-0.0742 5.5449,-0.0366 8.2502 0.1205c 0.0000,-0.0000 0.0000,-0.0000 0.0000 -0.0000ZM 819.7585,1549.7174 Z"/></g><g fill="rgb(106,161,33)" stroke="rgb(0,0,0)" stroke-linecap="butt" stroke-width="1.7623402914946675" font-size="2.67959494802722px" stroke-miterlimit="4.0" fill-opacity="1.0" stroke-opacity="0.0" stroke-linejoin="miter" opacity="1.0"><path d="M 819.7585,1549.7174 ZM 245.0065,190.2210 c 0.7820,2.6579 2.1567,6.4313 3.8465 10.0121c 1.0219,2.1760 3.0516,5.5019 4.9824 8.2814c -2.6332,-0.2291 -5.2599,-0.4658 -7.8684 -0.6970c -16.7683,-1.5038 -32.9309,-2.9484 -47.3823 -2.9645c -1.1768,-0.0000 -2.3438,0.0044 -3.4969 0.0154c 16.4262,-4.1466 32.6394,-9.2301 48.5644 -14.2233c 0.4518,-0.1441 0.9014,-0.2840 1.3542 -0.4249c 0.0000,-0.0000 0.0000,-0.0000 0.0000 -0.0000ZM 819.7585,1549.7174 Z"/></g><g fill="rgb(106,161,33)" stroke="rgb(0,0,0)" stroke-linecap="butt" stroke-width="1.7623402914946675" font-size="2.67959494802722px" stroke-miterlimit="4.0" fill-opacity="1.0" stroke-opacity="0.0" stroke-linejoin="miter" opacity="1.0"><path d="M 819.7585,1549.7174 ZM 267.3003,183.3551 c 0.8842,4.0509 2.3944,8.5234 4.3349 12.6840c 1.9211,4.1240 5.8397,10.4833 9.1258 14.4761c -7.8468,-0.4227 -15.7453,-1.0380 -23.5728 -1.7113c -2.1029,-2.8075 -4.8307,-7.1219 -6.0236 -9.6582c -1.6651,-3.5410 -3.0097,-7.2154 -3.7314 -9.6862c 6.6798,-2.0921 13.3047,-4.1531 19.8672 -6.1043c 0.0000,-0.0000 0.0000,-0.0000 0.0000 -0.0000ZM 819.7585,1549.7174 Z"/></g><g fill="rgb(106,161,33)" stroke="rgb(0,0,0)" stroke-linecap="butt" stroke-width="1.7623402914946675" font-size="2.67959494802722px" stroke-miterlimit="4.0" fill-opacity="1.0" stroke-opacity="0.0" stroke-linejoin="miter" opacity="1.0"><path d="M 819.7585,1549.7174 ZM 296.4708,175.5664 c 0.6820,4.9039 2.4396,10.2273 4.5242 15.1828c 2.9580,7.0261 7.5704,15.4302 10.3606 20.1103c -8.7687,0.3872 -17.8364,0.2560 -26.9966 -0.1657c -3.2366,-3.1689 -8.2255,-11.0673 -10.4004 -15.7346c -1.8931,-4.0627 -3.3614,-8.4234 -4.1940 -12.3344c 9.0268,-2.6472 17.9354,-5.0674 26.7062 -7.0584c 0.0000,-0.0000 0.0000,-0.0000 0.0000 -0.0000ZM 819.7585,1549.7174 Z"/></g><g fill="rgb(106,161,33)" stroke="rgb(0,0,0)" stroke-linecap="butt" stroke-width="1.7623402914946675" font-size="2.67959494802722px" stroke-miterlimit="4.0" fill-opacity="1.0" stroke-opacity="0.0" stroke-linejoin="miter" opacity="1.0"><path d="M 819.7585,1549.7174 ZM 341.0295,206.9430 c -2.0373,-2.0835 -6.3140,-9.2731 -9.8873 -18.0537c -2.3417,-5.7472 -4.3047,-12.1301 -5.0351 -18.1548c 20.0888,-1.7339 39.2729,0.3194 57.2879 8.9440c -9.9541,14.7030 -24.8249,22.9468 -42.3654 27.2644c 0.0000,-0.0000 0.0000,-0.0000 0.0000 -0.0000ZM 819.7585,1549.7174 Z"/></g><g fill="rgb(106,161,33)" stroke="rgb(0,0,0)" stroke-linecap="butt" stroke-width="1.7623402914946675" font-size="2.67959494802722px" stroke-miterlimit="4.0" fill-opacity="1.0" stroke-opacity="0.0" stroke-linejoin="miter" opacity="1.0"><path d="M 819.7585,1549.7174 ZM 323.5513,170.9723 c 0.7540,6.2936 2.7924,12.9260 5.2169 18.8830c 3.1258,7.6747 7.0122,14.2943 9.6819 17.6912c -7.7199,1.7081 -15.9271,2.6999 -24.4301 3.1807c -2.2126,-3.6819 -7.3832,-13.1799 -10.6629 -20.9697c -2.0405,-4.8501 -3.7508,-10.0390 -4.3747 -14.7503c 8.3212,-1.8114 16.5144,-3.2173 24.5689 -4.0347c 0.0000,-0.0000 0.0000,-0.0000 0.0000 -0.0000ZM 819.7585,1549.7174 Z"/></g><g fill="rgb(106,161,33)" stroke="rgb(0,0,0)" stroke-linecap="butt" stroke-width="1.7623402914946675" font-size="2.67959494802722px" stroke-miterlimit="4.0" fill-opacity="1.0" stroke-opacity="0.0" fill-rule="evenodd" stroke-linejoin="miter" opacity="1.0"><path d="M 819.7585,1549.7174 ZM 277.1457,153.3048 c 3.7658,21.3634 -17.3975,42.7849 -16.8543 62.7855c 6.1462,0.3302 10.8554,-4.0627 12.3603 -4.3284c -1.0283,0.1806 -2.0932,5.3954 -2.6827 11.2717c 4.5941,-0.4937 9.7206,-5.8182 10.8500 -6.0172c 0.3593,3.3851 -1.2338,8.4514 -0.8465 9.9637c 36.9184,-17.2706 54.8741,-57.0695 53.9728 -69.8880c 0.0000,-0.0000 -56.7995,-3.7873 -56.7995 -3.7873c 0.0000,-0.0000 0.0000,-0.0000 0.0000 -0.0000ZM 819.7585,1549.7174 Z"/></g><g fill="rgb(35,31,32)" stroke="rgb(0,0,0)" stroke-linecap="butt" stroke-width="1.7623402914946675" font-size="2.67959494802722px" stroke-miterlimit="4.0" fill-opacity="1.0" stroke-opacity="0.0" stroke-linejoin="miter" opacity="1.0"><path d="M 819.7585,1549.7174 ZM 297.6444,212.8074 c -6.3194,-1.2639 -12.4453,-3.4571 -17.8321 -6.7863c -4.4779,-2.7612 -8.4503,-6.3098 -11.5966 -10.7565c 0.9089,-2.1061 1.8759,-4.2305 2.8462 -6.3592c 7.8759,-17.3018 12.1075,-27.5721 4.8533 -45.1643c 1.1735,12.4571 -0.5809,24.9141 -9.5163 43.0442c -4.5059,9.8949 -8.9397,19.6338 -8.6762 29.3791c 0.0000,-0.0000 0.0656,2.3535 0.0656 2.3535c 3.7712,0.2022 6.8433,0.0947 10.4069 -1.5134c -0.5142,2.9537 -0.7895,5.9344 -1.0896 8.9182c 3.5884,-0.5658 5.5826,-1.3639 10.7694 -3.7034c -0.5002,3.1172 -0.4023,5.3008 0.3872 8.3890c 16.1014,-7.5327 29.0328,-17.5836 39.9183 -31.6778c 12.9680,-16.7941 19.4595,-31.3336 17.2792 -51.8408c -3.5130,16.4907 -6.7368,31.1981 -21.3311 48.7150c -4.5898,5.9397 -10.0831,11.7826 -16.4843 17.0028c 0.0000,-0.0000 0.0000,-0.0000 0.0000 -0.0000ZM 819.7585,1549.7174 Z"/></g><g fill="rgb(106,161,33)" stroke="rgb(0,0,0)" stroke-linecap="butt" stroke-width="1.7623402914946675" font-size="2.67959494802722px" stroke-miterlimit="4.0" fill-opacity="1.0" stroke-opacity="0.0" stroke-linejoin="miter" opacity="1.0"><path d="M 819.7585,1549.7174 ZM 266.5130,199.3801 c 3.2033,4.0154 7.0380,7.2897 11.2792 9.9078c 4.8791,3.0129 10.2961,5.1588 15.9056 6.5668c 0.0000,-0.0000 -10.7070,6.7486 -10.7070 6.7486c 0.0000,-0.0000 0.0861,-8.5966 0.0861 -8.5966c 0.0000,-0.0000 -10.0584,5.2330 -10.0584 5.2330c 0.0000,-0.0000 -0.8024,-10.0132 -0.8024 -10.0132c 0.0000,-0.0000 -9.2925,4.1219 -9.2925 4.1219c 0.0000,-0.0000 3.5894,-13.9684 3.5894 -13.9684c 0.0000,-0.0000 0.0000,-0.0000 0.0000 -0.0000ZM 819.7585,1549.7174 Z"/></g><g fill="rgb(106,161,33)" stroke="rgb(0,0,0)" stroke-linecap="butt" stroke-width="1.7623402914946675" font-size="2.67959494802722px" stroke-miterlimit="4.0" fill-opacity="1.0" stroke-opacity="0.0" fill-rule="evenodd" stroke-linejoin="miter" opacity="1.0"><path d="M 819.7585,1549.7174 ZM 147.8400,172.0221 c 0.5626,21.6840 -23.5448,39.7333 -25.9704 59.5919c 6.0279,1.2381 11.3384,-2.4073 12.8637 -2.4460c -1.0434,0.0258 -2.8666,5.0243 -4.3230 10.7489c 4.6178,0.1925 10.4779,-4.3144 11.6213 -4.3424c -0.1452,3.4001 -2.4718,8.1738 -2.3127 9.7271c 39.0697,-11.6062 62.7274,-48.3073 63.7353 -61.1172c 0.0000,-0.0000 -55.6142,-12.1623 -55.6142 -12.1623c 0.0000,-0.0000 0.0000,-0.0000 0.0000 -0.0000ZM 819.7585,1549.7174 Z"/></g><g fill="rgb(35,31,32)" stroke="rgb(0,0,0)" stroke-linecap="butt" stroke-width="1.7623402914946675" font-size="2.67959494802722px" stroke-miterlimit="4.0" fill-opacity="1.0" stroke-opacity="0.0" stroke-linejoin="miter" opacity="1.0"><path d="M 819.7585,1549.7174 ZM 159.2946,233.9052 c -6.0623,-2.1868 -11.7923,-5.2653 -16.6284 -9.3528c -4.0186,-3.3980 -7.4220,-7.4940 -9.8755 -12.3570c 1.2144,-1.9512 2.4858,-3.9035 3.7583 -5.8677c 10.3552,-15.9422 16.0594,-25.4724 11.4954 -43.9477c -0.6873,12.4947 -4.2660,24.5549 -15.7916 41.1586c -5.9247,9.1193 -11.7514,18.0935 -12.9325 27.7700c 0.0000,-0.0000 -0.2851,2.3384 -0.2851 2.3384c 3.6992,0.7573 6.7529,1.1036 10.5155 0.0463c -0.9444,2.8440 -1.6619,5.7493 -2.4008 8.6547c 3.6335,-0.0258 5.7246,-0.5195 11.2007 -2.0620c -0.9562,3.0043 -1.1832,5.1814 -0.8594 8.3492c 17.0383,-5.0620 31.3153,-13.0852 44.1715 -25.4122c 15.3151,-14.6847 23.8891,-28.1013 24.7700 -48.7075c -5.9193,15.7916 -11.2835,29.8578 -28.3143 45.0191c -5.4191,5.1943 -11.7192,10.1573 -18.8238 14.3707c 0.0000,-0.0000 0.0000,-0.0000 0.0000 -0.0000ZM 819.7585,1549.7174 Z"/></g><g fill="rgb(106,161,33)" stroke="rgb(0,0,0)" stroke-linecap="butt" stroke-width="1.7623402914946675" font-size="2.67959494802722px" stroke-miterlimit="4.0" fill-opacity="1.0" stroke-opacity="0.0" stroke-linejoin="miter" opacity="1.0"><path d="M 819.7585,1549.7174 ZM 130.4984,216.0129 c 2.5730,4.4456 5.8817,8.2513 9.6851 11.4675c 4.3811,3.7045 9.4194,6.6292 14.7590 8.8537c 0.0000,-0.0000 -11.5901,5.0878 -11.5901 5.0878c 0.0000,-0.0000 1.3585,-8.4890 1.3585 -8.4890c 0.0000,-0.0000 -10.7210,3.6841 -10.7210 3.6841c 0.0000,-0.0000 0.6895,-10.0218 0.6895 -10.0218c 0.0000,-0.0000 -9.7991,2.7009 -9.7991 2.7009c 0.0000,-0.0000 5.6181,-13.2832 5.6181 -13.2832c 0.0000,-0.0000 0.0000,-0.0000 0.0000 -0.0000ZM 819.7585,1549.7174 Z"/></g><g fill="rgb(106,161,33)" stroke="rgb(0,0,0)" stroke-linecap="butt" stroke-width="1.7623402914946675" font-size="2.67959494802722px" stroke-miterlimit="4.0" fill-opacity="1.0" stroke-opacity="0.0" fill-rule="evenodd" stroke-linejoin="miter" opacity="1.0"><path d="M 819.7585,1549.7174 ZM 408.8006,70.2885 c -0.7874,1.2606 -1.1617,2.7891 -0.9573 4.3703c 0.4690,3.6475 3.8250,6.2398 7.4704 5.7708c 3.3323,-0.4270 5.7805,-3.2635 5.8225 -6.5302c 0.0000,-0.0000 -12.3355,-3.6109 -12.3355 -3.6109c 0.0000,-0.0000 0.0000,-0.0000 0.0000 -0.0000ZM 819.7585,1549.7174 Z"/></g><g fill="rgb(35,31,32)" stroke="rgb(0,0,0)" stroke-linecap="butt" stroke-width="1.7623402914946675" font-size="2.67959494802722px" stroke-miterlimit="4.0" fill-opacity="1.0" stroke-opacity="0.0" fill-rule="evenodd" stroke-linejoin="miter" opacity="1.0"><path d="M 819.7585,1549.7174 ZM 265.0124,100.9240 c -4.1208,1.0111 -6.9702,3.9326 -6.3937 6.6249c 0.5970,2.7644 4.5952,4.2649 8.9064 3.3367c 1.8533,-0.3991 3.4711,-1.1854 4.6640 -2.1707c -0.1161,0.0291 -0.2323,0.0549 -0.3507 0.0806c -4.3090,0.9293 -8.3083,-0.5723 -8.9053 -3.3367c -0.3378,-1.5758 0.4980,-3.2313 2.0792 -4.5349c 0.0000,-0.0000 0.0000,-0.0000 0.0000 -0.0000ZM 819.7585,1549.7174 ZM 184.3884,150.9050 c -5.1244,2.0846 -8.2083,6.4668 -6.8734 9.7572c 1.3392,3.2861 6.6088,4.2714 11.7353 2.1846c 1.0918,-0.4464 2.0911,-0.9939 2.9763 -1.6145c -4.6748,1.4220 -9.1731,0.3420 -10.3961 -2.6612c -1.0509,-2.5869 0.6336,-5.8494 3.8949 -8.1394c -0.4453,0.1355 -0.8906,0.2904 -1.3370 0.4733c 0.0000,-0.0000 0.0000,-0.0000 0.0000 -0.0000ZM 819.7585,1549.7174 ZM 219.5438,149.1582 c -6.1667,2.0201 -10.1391,6.8852 -8.8536 10.8490c 1.2886,3.9745 7.3929,5.5783 13.5865 3.5668c 1.6253,-0.5260 3.0979,-1.2499 4.3693 -2.1061c -0.0198,0.0066 -0.0388,0.0132 -0.0549 0.0176c -6.1936,2.0115 -12.2968,0.4077 -13.5854 -3.5679c -0.9509,-2.9333 0.9745,-6.3581 4.5381 -8.7590c 0.0000,-0.0000 0.0000,-0.0000 0.0000 -0.0000ZM 819.7585,1549.7174 ZM 212.6026,127.0999 c -5.4331,3.5894 -7.9845,9.3571 -5.6826 12.8454c 2.3019,3.4873 8.6106,3.4055 14.0458 -0.1839c 0.0066,-0.0044 0.0132,-0.0088 0.0225 -0.0154c -4.1294,1.3198 -8.0447,0.6970 -9.7529 -1.8899c -2.3008,-3.4829 0.2409,-9.2398 5.6547 -12.8282c -1.4295,0.4582 -2.8881,1.1477 -4.2875 2.0717c 0.0000,-0.0000 0.0000,-0.0000 0.0000 -0.0000ZM 819.7585,1549.7174 ZM 243.0585,118.3850 c -5.4353,3.5884 -7.9878,9.3571 -5.6848 12.8454c 2.3030,3.4873 8.6116,3.4055 14.0447 -0.1839c 0.0088,-0.0021 0.0132,-0.0088 0.0220 -0.0132c -4.1273,1.3198 -8.0426,0.6970 -9.7507 -1.8920c -2.2987,-3.4808 0.2410,-9.2377 5.6568 -12.8282c -1.4338,0.4582 -2.8903,1.1477 -4.2875 2.0728c 0.0000,-0.0000 0.0000,-0.0000 0.0000 -0.0000ZM 819.7585,1549.7174 ZM 252.8157,144.1951 c -6.1075,2.2621 -9.9002,7.3036 -8.4481 11.2233c 1.4500,3.9175 7.6145,5.2685 13.7188 3.0054c 1.3510,-0.5023 2.5902,-1.1370 3.6841 -1.8673c -5.8956,1.9448 -11.6880,0.5539 -13.0885 -3.2291c -1.1316,-3.0505 0.9186,-6.7819 4.7640 -9.3517c -0.2108,0.0698 -0.4217,0.1410 -0.6303 0.2194c 0.0000,-0.0000 0.0000,-0.0000 0.0000 -0.0000ZM 819.7585,1549.7174 ZM 273.1906,117.9934 c -4.7436,1.4371 -7.9813,4.6920 -7.6285 8.0975c 0.4313,4.1563 6.0656,6.9971 12.5420 6.3248c 3.0172,-0.3119 5.6977,-1.3349 7.6575 -2.7569c -1.0487,0.3162 -2.1696,0.5454 -3.3431 0.6680c -6.4754,0.6723 -12.1097,-2.1696 -12.5420 -6.3259c -0.2302,-2.2191 1.0692,-4.3757 3.3141 -6.0075c 0.0000,-0.0000 0.0000,-0.0000 0.0000 -0.0000ZM 819.7585,1549.7174 ZM 294.1506,96.9828 c -4.7425,1.4371 -7.9834,4.6930 -7.6306 8.0975c 0.4324,4.1552 6.0656,6.9982 12.5420 6.3248c 3.0172,-0.3130 5.6998,-1.3338 7.6575 -2.7580c -1.0498,0.3184 -2.1685,0.5464 -3.3420 0.6680c -6.4765,0.6733 -12.1107,-2.1696 -12.5420 -6.3248c -0.2291,-2.2201 1.0692,-4.3768 3.3151 -6.0075c 0.0000,-0.0000 0.0000,-0.0000 0.0000 -0.0000ZM 819.7585,1549.7174 ZM 309.3495,116.9727 c -4.9889,1.6027 -8.4008,4.9749 -8.2384 8.7117c 0.2130,4.9932 6.7335,8.7956 14.5169 8.4610c 3.8659,-0.1646 7.3316,-1.3198 9.8164 -3.0527c -1.6780,0.5410 -3.5378,0.8809 -5.5019 0.9649c -7.7812,0.3334 -14.3040,-3.4700 -14.5191 -8.4643c -0.1064,-2.5138 1.4048,-4.8630 3.9261 -6.6206c 0.0000,-0.0000 0.0000,-0.0000 0.0000 -0.0000ZM 819.7585,1549.7174 ZM 328.3358,90.2611 c -5.4181,1.7910 -9.0709,5.5880 -8.6557 9.5485c 0.5206,4.9738 7.2660,8.3664 15.0128 7.5532c 3.4163,-0.3571 6.4679,-1.4736 8.7730 -3.0387c -1.3833,0.4593 -2.8817,0.7831 -4.4586 0.9498c -7.7489,0.8121 -14.4911,-2.5805 -15.0128 -7.5532c -0.2915,-2.7795 1.4188,-5.4772 4.3413 -7.4596c 0.0000,-0.0000 0.0000,-0.0000 0.0000 -0.0000ZM 819.7585,1549.7174 ZM 74.6552,185.8786 c -4.4080,1.2262 -7.4370,4.2714 -7.0068 7.3230c 0.4959,3.4894 5.3331,5.7084 10.7715 4.9383c 2.4901,-0.3528 4.6844,-1.2736 6.2861 -2.5009c -0.6314,0.1754 -1.2897,0.3141 -1.9717 0.4109c -5.4396,0.7712 -10.2757,-1.4478 -10.7715 -4.9372c -0.2678,-1.8920 0.7960,-3.7798 2.6923 -5.2341c 0.0000,-0.0000 0.0000,-0.0000 0.0000 -0.0000ZM 819.7585,1549.7174 ZM 103.0415,179.1311 c -3.7110,0.8315 -6.3409,3.3130 -5.9914 5.8010c 0.3840,2.6934 4.1133,4.4037 8.3115 3.8089c 2.1384,-0.3012 3.9939,-1.1499 5.2513 -2.2610c -0.3044,0.0679 -0.6185,0.1269 -0.9358 0.1709c -4.1982,0.5948 -7.9286,-1.1176 -8.3115 -3.8089c -0.1861,-1.3209 0.4679,-2.6386 1.6759 -3.7110c 0.0000,-0.0000 0.0000,-0.0000 0.0000 -0.0000ZM 819.7585,1549.7174 ZM 124.9750,171.0347 c -5.7192,2.3255 -9.1634,7.2176 -7.6704 10.8899c 1.4930,3.6679 7.3714,4.7651 13.0917 2.4374c 1.1262,-0.4582 2.1642,-1.0165 3.0946 -1.6457c -5.3148,1.7146 -10.4865,0.5271 -11.8730 -2.8806c -1.1983,-2.9473 0.7831,-6.6819 4.5715 -9.2430c -0.4055,0.1302 -0.8100,0.2775 -1.2144 0.4421c 0.0000,-0.0000 0.0000,-0.0000 0.0000 -0.0000ZM 819.7585,1549.7174 Z"/></g><g fill="rgb(35,31,32)" stroke="rgb(0,0,0)" stroke-linecap="butt" stroke-width="1.7623402914946675" font-size="2.67959494802722px" stroke-miterlimit="4.0" fill-opacity="1.0" stroke-opacity="0.0" stroke-linejoin="miter" opacity="1.0"><path d="M 819.7585,1549.7174 ZM 437.3978,132.3265 c 2.6794,3.0140 5.3255,5.6945 7.5532 7.5016c 2.5826,2.0943 4.9372,3.0957 6.7884 2.4406c 0.0000,-0.0000 1.0036,-0.6271 1.0036 -0.6271c 1.1348,-1.0993 1.8286,-3.2528 2.1298 -6.1484c 0.2474,-2.3524 0.3023,-5.3072 0.1903 -8.6202c 1.7081,-0.5324 3.4195,-1.0703 5.1362 -1.6113c 1.4672,3.2721 2.9473,6.1968 4.2908 8.3244c 1.7630,2.7988 3.6314,4.5435 5.5159 4.6425c 0.0000,-0.0000 1.1854,-0.1989 1.1854 -0.1989c 1.7662,-0.7336 3.4087,-3.2850 4.8200 -7.0218c 1.1757,-3.1097 2.3567,-7.2767 3.4163 -11.9762c 0.5217,-0.1731 1.0358,-0.3474 1.5554 -0.5228c 1.1133,2.2492 2.2083,4.2079 3.2205 5.6859c 1.5672,2.2825 3.2280,3.6712 4.9437 3.7594c 0.0000,-0.0000 1.1897,-0.1958 1.1897 -0.1958c 1.6081,-0.6701 3.0914,-2.7924 4.3768 -5.9236c 0.9896,-2.4062 1.9835,-5.5514 2.9053 -9.1365c 1.0649,-0.3851 2.1233,-0.7745 3.1839 -1.1671c 1.4715,3.3592 2.9828,6.4377 4.3854 8.7805c 1.9147,3.2011 3.9379,5.2373 5.9440 5.3417c 0.0000,-0.0000 1.1897,-0.1958 1.1897 -0.1958c 1.9394,-0.8099 3.7863,-3.9627 5.3556 -8.5374c 1.2284,-3.5840 2.4428,-8.2212 3.4926 -13.3133c 2.3266,4.0261 4.7716,7.8909 6.9465 10.7790c 2.7967,3.7088 5.5321,6.0183 7.7974 5.7278c 0.0000,-0.0000 1.1284,-0.4163 1.1284 -0.4163c 1.9050,-1.2209 3.3614,-5.2664 4.2907 -10.8436c 0.7175,-4.3284 1.2434,-9.7776 1.4984 -15.5786c 0.8368,-0.4432 1.6737,-0.8853 2.4977 -1.3338c 4.0961,-2.2223 7.6231,-4.6005 10.6134 -7.0799c 7.4876,-6.2043 11.7095,-13.0906 13.3068 -19.8715c 0.0000,-0.0000 0.0018,0.0088 0.0018 0.0088c 1.6307,-6.9100 0.5282,-13.6672 -2.6300 -19.4864c -0.9218,-1.7028 -2.0201,-3.3205 -3.2689 -4.8296c -3.4474,-4.1563 -8.0856,-7.0250 -13.2918 -8.7310c -6.6217,-2.1707 -14.1813,-2.4772 -21.3441 -1.1843c -7.1703,1.2962 -14.0092,4.2166 -19.1648 8.4890c -3.4119,2.8268 -6.0903,6.2430 -7.6769 10.1767c -0.9982,0.3033 -1.8931,0.5862 -2.9053 0.9025c -15.9766,5.0190 -56.3478,17.7052 -72.8288 7.4994c -13.0691,-10.1380 -27.7173,-12.5076 -40.9757 -9.0161c -8.5761,2.2589 -16.5467,6.9734 -23.0963 13.6231c -6.5206,6.6195 -11.6449,15.1559 -14.5632 25.0852c -5.7429,19.5359 -2.9612,44.4866 14.5460 70.7808c 0.0000,-0.0000 1.5586,2.3438 1.5586 2.3438c 0.0000,-0.0000 2.3040,-1.6146 2.3040 -1.6146c 12.0967,-8.4793 39.5085,-16.8963 71.0142 -26.5674c 0.1560,-0.0474 0.3130,-0.0958 0.4690 -0.1441c 0.0000,-0.0000 0.0000,-0.0000 0.0000 -0.0000ZM 819.7585,1549.7174 Z"/></g><g fill="rgb(106,161,33)" stroke="rgb(0,0,0)" stroke-linecap="butt" stroke-width="1.7623402914946675" font-size="2.67959494802722px" stroke-miterlimit="4.0" fill-opacity="1.0" stroke-opacity="0.0" stroke-linejoin="miter" opacity="1.0"><path d="M 819.7585,1549.7174 ZM 365.1369,152.9896 c -15.1688,-23.9245 -17.5266,-46.3583 -12.3656 -63.9289c 2.6547,-9.0311 7.2961,-16.7769 13.1950 -22.7618c 5.8655,-5.9559 12.9701,-10.1702 20.5976 -12.1785c 11.7235,-3.0860 24.7367,-0.9358 36.3784 8.1749c 0.0000,-0.0000 0.2399,0.1743 0.2399 0.1743c 18.5947,11.6019 60.7612,-1.6457 77.4391 -6.8863c 1.9168,-0.6023 3.5432,-1.1144 4.1477 -1.2929c 0.0000,-0.0000 1.3822,-0.4120 1.3822 -0.4120c 0.0000,-0.0000 0.4464,-1.3618 0.4464 -1.3618c 1.1466,-3.4905 3.4270,-6.5281 6.4431 -9.0268c 4.4037,-3.6497 10.3488,-6.1592 16.6553 -7.2983c 6.3173,-1.1423 12.9282,-0.8906 18.6539 0.9842c 4.2735,1.4016 8.0415,3.7034 10.7694 6.9981c 1.0348,1.2467 1.9319,2.5697 2.6837 3.9519c 2.5288,4.6640 3.4130,10.0777 2.1072 15.6098c 0.0000,-0.0000 0.0044,0.0110 0.0044 0.0110c -1.3360,5.6654 -4.9673,11.4997 -11.4610 16.8834c -2.7354,2.2664 -5.9688,4.4467 -9.7378 6.4915c -1.4295,0.7766 -2.8838,1.5446 -4.3596 2.3030c 0.0000,-0.0000 -0.8906,-0.0198 -0.8906 -0.0198c -0.0044,0.1593 -0.0088,0.3195 -0.0132 0.4797c -29.6588,15.0860 -68.2498,26.9331 -102.1295 37.3336c -30.0944,9.2387 -56.5059,17.3470 -70.1860 25.7714c 0.0000,-0.0000 0.0000,-0.0000 0.0000 -0.0000ZM 819.7585,1549.7174 Z"/></g><g fill="rgb(255,255,255)" stroke="rgb(0,0,0)" stroke-linecap="butt" stroke-width="1.7623402914946675" font-size="2.67959494802722px" stroke-miterlimit="4.0" fill-opacity="1.0" stroke-opacity="0.0" stroke-linejoin="miter" opacity="1.0"><path d="M 819.7585,1549.7174 ZM 473.2986,121.0580 c -0.7820,3.0957 -1.6070,5.8332 -2.4331 8.0114c -0.4270,1.1337 -0.7981,2.0556 -1.0939 2.7171c -0.1527,-0.3087 -0.3582,-0.6830 -0.6314 -1.1144c -1.1434,-1.8168 -2.4073,-4.2907 -3.6809 -7.0799c 2.6095,-0.8347 5.2223,-1.6769 7.8393 -2.5342c 0.0000,-0.0000 0.0000,-0.0000 0.0000 -0.0000ZM 819.7585,1549.7174 Z"/></g><g fill="rgb(255,255,255)" stroke="rgb(0,0,0)" stroke-linecap="butt" stroke-width="1.7623402914946675" font-size="2.67959494802722px" stroke-miterlimit="4.0" fill-opacity="1.0" stroke-opacity="0.0" stroke-linejoin="miter" opacity="1.0"><path d="M 819.7585,1549.7174 ZM 491.2942,114.9633 c -0.5529,1.8437 -1.1079,3.4625 -1.6565 4.7942c -0.2646,0.6486 -0.5002,1.2026 -0.7013 1.6468c -0.0515,-0.0947 -0.1161,-0.1978 -0.1914 -0.3055c -0.7745,-1.1294 -1.6253,-2.6310 -2.5073 -4.3779c 1.6877,-0.5808 3.3754,-1.1649 5.0566 -1.7576c 0.0000,-0.0000 0.0000,-0.0000 0.0000 -0.0000ZM 819.7585,1549.7174 Z"/></g><g fill="rgb(255,255,255)" stroke="rgb(0,0,0)" stroke-linecap="butt" stroke-width="1.7623402914946675" font-size="2.67959494802722px" stroke-miterlimit="4.0" fill-opacity="1.0" stroke-opacity="0.0" stroke-linejoin="miter" opacity="1.0"><path d="M 819.7585,1549.7174 ZM 537.1738,96.1557 c -0.2764,4.4026 -0.7078,8.4739 -1.2639 11.8106c -0.4442,2.6751 -0.8745,4.7554 -1.2596 5.9645c -0.4754,-0.6217 -1.2209,-1.6103 -2.1459 -2.8397c -1.9566,-2.5966 -4.1821,-6.0946 -6.3313 -9.7948c 3.7648,-1.6705 7.4402,-3.3818 11.0006 -5.1405c 0.0000,-0.0000 0.0000,-0.0000 0.0000 -0.0000ZM 819.7585,1549.7174 Z"/></g><g fill="rgb(255,255,255)" stroke="rgb(0,0,0)" stroke-linecap="butt" stroke-width="1.7623402914946675" font-size="2.67959494802722px" stroke-miterlimit="4.0" fill-opacity="1.0" stroke-opacity="0.0" stroke-linejoin="miter" opacity="1.0"><path d="M 819.7585,1549.7174 ZM 515.0219,106.0269 c -0.8057,3.4668 -1.6662,6.5851 -2.5353 9.1129c -0.6239,1.8178 -1.1617,3.2463 -1.5780 4.1509c -0.2431,-0.4529 -0.5733,-1.0606 -1.0133 -1.7931c -1.2230,-2.0448 -2.5816,-4.8167 -3.9412 -7.9049c 3.0559,-1.1671 6.0806,-2.3546 9.0677 -3.5658c 0.0000,-0.0000 0.0000,-0.0000 0.0000 -0.0000ZM 819.7585,1549.7174 Z"/></g><g fill="rgb(255,255,255)" stroke="rgb(0,0,0)" stroke-linecap="butt" stroke-width="1.7623402914946675" font-size="2.67959494802722px" stroke-miterlimit="4.0" fill-opacity="1.0" stroke-opacity="0.0" stroke-linejoin="miter" opacity="1.0"><path d="M 819.7585,1549.7174 ZM 449.5903,128.5735 c 0.0474,2.5127 -0.0066,4.6780 -0.1817 6.3646c -0.0582,0.5475 -0.1130,1.0219 -0.1690 1.4177c -0.2044,-0.2280 -0.4711,-0.4991 -0.8272 -0.7874c -1.4887,-1.2069 -3.2829,-2.9656 -5.1975 -5.0276c 2.1104,-0.6497 4.2370,-1.3048 6.3754 -1.9674c 0.0000,-0.0000 0.0000,-0.0000 0.0000 -0.0000ZM 819.7585,1549.7174 Z"/></g><g fill="rgb(35,31,32)" stroke="rgb(0,0,0)" stroke-linecap="butt" stroke-width="1.7623402914946675" font-size="2.67959494802722px" stroke-miterlimit="4.0" fill-opacity="1.0" stroke-opacity="0.0" fill-rule="evenodd" stroke-linejoin="miter" opacity="1.0"><path d="M 819.7585,1549.7174 ZM 550.8388,46.6748 c -3.0150,-1.5403 -14.3900,-6.7766 -21.2698 -5.6719c -7.2380,1.1628 -9.3807,9.2506 4.8964 6.3044c 0.0000,-0.0000 7.0154,-1.4478 7.0154 -1.4478c 0.0000,-0.0000 9.3581,0.8153 9.3581 0.8153c 0.0000,-0.0000 0.0000,-0.0000 0.0000 -0.0000ZM 819.7585,1549.7174 Z"/></g><g fill="rgb(35,31,32)" stroke="rgb(0,0,0)" stroke-linecap="butt" stroke-width="1.7623402914946675" font-size="2.67959494802722px" stroke-miterlimit="4.0" fill-opacity="1.0" stroke-opacity="0.0" stroke-linejoin="miter" opacity="1.0"><path d="M 819.7585,1549.7174 ZM 376.9378,62.4481 c -2.5600,5.0964 -3.6830,10.9781 -2.9042 17.0393c 2.0782,16.2014 16.9888,27.7184 33.1902 25.6380c 8.1018,-1.0391 15.0322,-5.2879 19.6757 -11.3007c 4.2434,-5.4933 6.5776,-12.4668 6.1549 -19.8102c 0.0000,-0.0000 -44.8050,-13.1121 -44.8050 -13.1121c 0.0000,-0.0000 1.0369,5.7795 1.0369 5.7795c 0.0000,-0.0000 -12.3484,-4.2338 -12.3484 -4.2338c 0.0000,-0.0000 0.0000,-0.0000 0.0000 -0.0000ZM 819.7585,1549.7174 Z"/></g><g fill="rgb(255,255,255)" stroke="rgb(0,0,0)" stroke-linecap="butt" stroke-width="1.7623402914946675" font-size="2.67959494802722px" stroke-miterlimit="4.0" fill-opacity="1.0" stroke-opacity="0.0" fill-rule="evenodd" stroke-linejoin="miter" opacity="1.0"><path d="M 819.7585,1549.7174 ZM 382.7269,66.8013 c -2.1007,4.1079 -3.0301,8.8655 -2.3998 13.7715c 1.6619,12.9540 13.5854,22.1637 26.5394 20.5008c 12.5464,-1.6102 21.5786,-12.8421 20.6266 -25.3143c 0.0000,-0.0000 -36.4289,-10.6607 -36.4289 -10.6607c 0.0000,-0.0000 0.8713,4.8598 0.8713 4.8598c 0.0000,-0.0000 -9.2086,-3.1570 -9.2086 -3.1570c 0.0000,-0.0000 0.0000,-0.0000 0.0000 -0.0000ZM 819.7585,1549.7174 Z"/></g><g fill="rgb(35,31,32)" stroke="rgb(0,0,0)" stroke-linecap="butt" stroke-width="1.7623402914946675" font-size="2.67959494802722px" stroke-miterlimit="4.0" fill-opacity="1.0" stroke-opacity="0.0" fill-rule="evenodd" stroke-linejoin="miter" opacity="1.0"><path d="M 819.7585,1549.7174 ZM 411.6307,75.5344 c -0.2668,-2.0760 -0.8196,-4.0337 -1.5425 -5.8343c 0.0000,-0.0000 -12.9486,-3.7884 -12.9486 -3.7884c -1.1251,3.3001 -1.8802,7.3897 -1.3349 11.6525c 1.2865,10.0089 9.1398,17.2975 10.2455 17.1544c 1.1090,-0.1419 6.8669,-9.1785 5.5805 -19.1842c 0.0000,-0.0000 0.0000,-0.0000 0.0000 -0.0000ZM 819.7585,1549.7174 Z"/></g><g fill="rgb(35,31,32)" stroke="rgb(0,0,0)" stroke-linecap="butt" stroke-width="1.7623402914946675" font-size="2.67959494802722px" stroke-miterlimit="4.0" fill-opacity="1.0" stroke-opacity="0.0" stroke-linejoin="miter" opacity="1.0"><path d="M 819.7585,1549.7174 ZM 470.2147,183.2454 c -1.3144,-4.8286 -2.8117,-9.2592 -4.2886 -12.6507c -1.7920,-4.1100 -3.7874,-6.9336 -5.7547 -7.6177c 0.0000,-0.0000 -1.0552,-0.1507 -1.0552 -0.1507c -2.0857,0.1205 -4.1886,2.2546 -6.1548 5.5256c -0.6228,1.0369 -1.2585,2.2094 -1.8996 3.4722c -0.1441,-1.4672 -0.3195,-2.8268 -0.5270 -4.0509c -0.6583,-3.8766 -1.7877,-6.6970 -3.3894 -7.7963c 0.0000,-0.0000 -0.9874,-0.4227 -0.9874 -0.4227c -1.9867,-0.4206 -4.4758,0.9885 -7.1305 3.4851c -2.0147,1.8942 -4.2854,4.4575 -6.5259 7.2423c -6.6981,-5.3266 -13.0960,-12.9153 -19.5563 -20.5857c -4.0638,-4.8189 -8.1491,-9.6658 -12.4065 -14.0802c -8.4126,-8.7160 -15.8098,-14.0006 -22.2368 -16.4725c -6.1043,-2.3503 -11.4062,-2.2373 -15.9346 -0.1516c -4.4381,2.0513 -7.9845,5.9720 -10.6909 11.3083c -3.8089,7.5037 -5.9806,17.9310 -6.6583 29.8395c -0.1903,3.3259 -0.1485,6.5001 0.1086 9.5270c 1.4102,16.5499 9.2882,28.1336 21.4720 35.8492c 11.9010,7.5349 27.8571,11.2749 45.8150 12.2968c 10.0821,0.5765 20.8310,0.2947 31.8596 -0.6454c 13.6489,-1.1649 23.3641,0.6852 34.6767 2.8354c 10.5069,1.9964 22.3530,4.2488 39.6537 4.7113c 14.8773,0.4001 24.8636,-3.6798 29.7115 -9.1279c 2.0997,-2.3589 3.2936,-4.9824 3.5679 -7.6651c 0.2829,-2.7225 -0.3808,-5.4643 -2.0028 -8.0082c -2.0706,-3.2528 -5.7816,-6.1667 -11.1308 -8.1975c 0.1344,-4.0251 0.0526,-7.6887 -0.2614 -10.5897c -0.4066,-3.7540 -1.3349,-6.5270 -2.8300 -7.7070c 0.0000,-0.0000 -0.9584,-0.4851 -0.9584 -0.4851c -2.2244,-0.6303 -5.3890,1.1735 -8.8096 4.2477c -3.1958,2.8698 -6.9121,6.9153 -10.2047 10.8684c -0.0634,-0.0044 -0.1291,-0.0110 -0.1958 -0.0154c -1.2424,-4.2305 -2.6042,-8.0362 -3.9358 -10.9479c -1.6780,-3.6690 -3.5367,-6.1710 -5.3987 -6.8175c 0.0000,-0.0000 -1.0531,-0.1507 -1.0531 -0.1507c -2.1265,0.1227 -4.2746,2.3438 -6.2807 5.7257c -1.2843,2.1642 -2.6385,4.9179 -3.9411 7.8791c -1.0531,-3.3980 -2.1771,-6.4754 -3.2829 -8.9537c -1.7329,-3.8863 -3.6604,-6.5442 -5.5729 -7.2111c 0.0000,-0.0000 -1.0552,-0.1496 -1.0552 -0.1496c -2.1427,0.1238 -4.3198,2.3955 -6.3495 5.8451c -1.6651,2.8322 -3.4442,6.6314 -5.0727 10.5779c -1.0993,-0.1839 -2.2083,-0.3776 -3.3324 -0.5862c 0.0000,-0.0000 0.0000,-0.0000 0.0000 -0.0000ZM 819.7585,1549.7174 Z"/></g><g fill="rgb(106,161,33)" stroke="rgb(0,0,0)" stroke-linecap="butt" stroke-width="1.7623402914946675" font-size="2.67959494802722px" stroke-miterlimit="4.0" fill-opacity="1.0" stroke-opacity="0.0" stroke-linejoin="miter" opacity="1.0"><path d="M 819.7585,1549.7174 ZM 396.5910,139.4268 c 4.1230,4.2703 8.1502,9.0483 12.1537 13.7984c 10.4983,12.4582 20.8417,24.7345 33.3741 28.6241c 25.9274,8.0448 41.8545,9.2635 62.3628 10.8328c 6.7228,0.5152 13.9436,1.0670 22.1712 1.9147c 9.9540,1.0240 16.1057,4.3424 18.6076 8.2696c 0.9229,1.4510 1.3080,2.9914 1.1499 4.4994c -0.1593,1.5489 -0.8906,3.1140 -2.1889 4.5704c -3.8820,4.3660 -12.3743,7.6210 -25.4681 7.2682c -17.0350,-0.4561 -28.5552,-2.6461 -38.7792 -4.5909c -11.7342,-2.2298 -21.8120,-4.1466 -36.1590 -2.9236c -10.7543,0.9165 -21.2376,1.1886 -31.0797 0.6293c -17.1028,-0.9756 -32.1715,-4.4564 -43.1948 -11.4384c -10.7414,-6.8003 -17.6879,-17.0329 -18.9368 -31.6735c -0.2323,-2.7407 -0.2668,-5.6536 -0.0925 -8.7483c 0.6389,-11.1953 2.6213,-20.8815 6.0763 -27.6904c 2.1427,-4.2230 4.8340,-7.2746 8.0964 -8.7783c 3.1764,-1.4661 7.0412,-1.4876 11.6482 0.2840c 5.7149,2.1997 12.4453,7.0541 20.2587 15.1526c 0.0000,-0.0000 0.0000,-0.0000 0.0000 -0.0000ZM 819.7585,1549.7174 Z"/></g><g fill="rgb(255,255,255)" stroke="rgb(0,0,0)" stroke-linecap="butt" stroke-width="1.7623402914946675" font-size="2.67959494802722px" stroke-miterlimit="4.0" fill-opacity="1.0" stroke-opacity="0.0" stroke-linejoin="miter" opacity="1.0"><path d="M 819.7585,1549.7174 ZM 522.4159,188.6484 c 2.4482,-2.7913 4.9577,-5.4223 7.1423 -7.3843c 1.3220,-1.1875 2.3879,-2.1169 3.0215 -2.6246c 0.1485,0.6917 0.2958,1.7436 0.4410 3.0753c 0.2474,2.2987 0.3356,5.1760 0.2679 8.3804c -1.8824,-0.4206 -3.9089,-0.7497 -6.0796 -0.9724c -1.6371,-0.1690 -3.2345,-0.3270 -4.7931 -0.4744c 0.0000,-0.0000 0.0000,-0.0000 0.0000 -0.0000ZM 819.7585,1549.7174 Z"/></g><g fill="rgb(255,255,255)" stroke="rgb(0,0,0)" stroke-linecap="butt" stroke-width="1.7623402914946675" font-size="2.67959494802722px" stroke-miterlimit="4.0" fill-opacity="1.0" stroke-opacity="0.0" stroke-linejoin="miter" opacity="1.0"><path d="M 819.7585,1549.7174 ZM 499.5358,186.7800 c 1.3284,-3.0796 2.7192,-5.9505 4.0165 -8.1405c 0.6185,-1.0391 1.1155,-1.8695 1.4414 -2.3955c 0.4034,0.6680 0.9390,1.7393 1.5694 3.1129c 1.0100,2.2169 2.0556,5.0330 3.0473 8.2029c -1.5973,-0.1258 -3.1624,-0.2453 -4.7038 -0.3625c -1.8221,-0.1399 -3.6099,-0.2786 -5.3707 -0.4173c 0.0000,-0.0000 0.0000,-0.0000 0.0000 -0.0000ZM 819.7585,1549.7174 Z"/></g><g fill="rgb(255,255,255)" stroke="rgb(0,0,0)" stroke-linecap="butt" stroke-width="1.7623402914946675" font-size="2.67959494802722px" stroke-miterlimit="4.0" fill-opacity="1.0" stroke-opacity="0.0" stroke-linejoin="miter" opacity="1.0"><path d="M 819.7585,1549.7174 ZM 479.1372,184.6868 c 1.3887,-3.2667 2.8526,-6.3345 4.2198 -8.6557c 0.6454,-1.0993 1.1681,-1.9717 1.5038 -2.5159c 0.4410,0.7239 1.0315,1.9254 1.7264 3.4797c 1.0756,2.4105 2.1836,5.4901 3.2248 8.9419c -3.5583,-0.3485 -7.0832,-0.7497 -10.6747 -1.2499c 0.0000,-0.0000 0.0000,-0.0000 0.0000 -0.0000ZM 819.7585,1549.7174 Z"/></g><g fill="rgb(255,255,255)" stroke="rgb(0,0,0)" stroke-linecap="butt" stroke-width="1.7623402914946675" font-size="2.67959494802722px" stroke-miterlimit="4.0" fill-opacity="1.0" stroke-opacity="0.0" stroke-linejoin="miter" opacity="1.0"><path d="M 819.7585,1549.7174 ZM 453.5712,179.4538 c 1.3639,-3.1688 2.7892,-6.1021 4.1004 -8.2846c 0.5787,-0.9638 1.0434,-1.7318 1.3500 -2.2277c 0.4776,0.7798 1.1230,2.1061 1.8748 3.8347c 1.0972,2.5170 2.2191,5.7085 3.2689 9.2549c -3.3700,-0.7304 -6.8809,-1.5790 -10.5941 -2.5772c 0.0000,-0.0000 0.0000,-0.0000 0.0000 -0.0000ZM 819.7585,1549.7174 Z"/></g><g fill="rgb(255,255,255)" stroke="rgb(0,0,0)" stroke-linecap="butt" stroke-width="1.7623402914946675" font-size="2.67959494802722px" stroke-miterlimit="4.0" fill-opacity="1.0" stroke-opacity="0.0" stroke-linejoin="miter" opacity="1.0"><path d="M 819.7585,1549.7174 ZM 437.0052,173.4656 c 2.0609,-2.5525 4.0767,-4.8350 5.7848 -6.4431c 0.7035,-0.6626 1.2768,-1.1972 1.6673 -1.5608c 0.2033,0.7250 0.4281,1.8308 0.6669 3.2302c 0.4023,2.3643 0.6734,5.3115 0.8132 8.5826c -0.7282,-0.2183 -1.4607,-0.4442 -2.2040 -0.6744c -2.2890,-0.7121 -4.5274,-1.7813 -6.7282 -3.1344c 0.0000,-0.0000 0.0000,-0.0000 0.0000 -0.0000ZM 819.7585,1549.7174 Z"/></g></svg>