<?xml version="1.0" encoding="UTF-8"?>
<!DOCTYPE svg PUBLIC "-//W3C//DTD SVG 1.1//EN"
    "http://www.w3.org/Graphics/SVG/1.1/DTD/svg11.dtd"><svg stroke="rgb(0,0,0)" xmlns="http://www.w3.org/2000/svg" font-size="1" width="600.0000" stroke-opacity="1" xmlns:xlink="http://www.w3.org/1999/xlink" viewBox="0.0 0.0 600.0 581.4504812390732" height="581.4505" version="1.1"><defs></defs><g fill="rgb(255,255,255)" stroke="rgb(0,0,0)" stroke-linecap="butt" stroke-width="0.0" stroke-miterlimit="10.0" fill-opacity="1.0" stroke-opacity="1.0" stroke-linejoin="miter"><path d="M 600.0000,581.4505 l -0.0000,-581.4505 h -600.0000 l -0.0000,581.4505 Z"/></g><g fill="rgb(106,161,33)" stroke="rgb(0,0,0)" stroke-linecap="butt" stroke-width="3.3646153846153832" font-size="2.362609705367161px" stroke-miterlimit="4.0" fill-opacity="1.0" stroke-opacity="0.0" stroke-linejoin="miter" opacity="1.0"><path d="M 98.1231,-3008.9669 ZM 340.2571,283.2435 c -62.0632,5.1318 -125.6991,18.5804 -179.4681 51.2250c -29.6851,17.5770 -56.9459,55.5260 -39.7379 90.4702c 22.6780,39.3377 68.8836,56.7113 109.7704 70.6714c 62.5016,17.5438 135.8160,32.7461 195.1742 -2.2489c 46.1785,-27.9832 61.6937,-89.7582 43.3523 -138.9022c -16.7317,-54.5102 -77.4480,-73.8888 -129.0908 -71.2155ZM 98.1231,-3008.9669 Z"/></g><g fill="rgb(35,31,32)" stroke="rgb(0,0,0)" stroke-linecap="butt" stroke-width="3.3646153846153832" font-size="2.362609705367161px" stroke-miterlimit="4.0" fill-opacity="1.0" stroke-opacity="0.0" stroke-linejoin="miter" opacity="1.0"><path d="M 98.1231,-3008.9669 ZM 235.2788,489.9091 c -28.0789,-7.7790 -102.4910,-36.7224 -111.4693 -77.2973c -0.0720,-0.3297 -0.2096,-0.8132 -0.3079 -1.1376c -0.2258,-0.7231 -5.3517,-17.9856 8.2555 -39.7290c 16.2707,-26.0108 60.8645,-60.8686 180.9076 -79.2195c 0.1356,-0.0202 0.2833,-0.0451 0.4147 -0.0740c 0.7721,-0.1437 77.6794,-14.0138 123.0763 24.2284c 23.0865,19.4476 34.4964,49.7464 33.9069 90.0421c -0.0135,0.3533 -1.8072,47.8489 -41.8482 77.0060c -40.6202,29.5841 -105.5344,31.6624 -192.9355 6.1811c 0.0000,0.0000 0.0000,0.0000 0.0000 0.0000ZM 98.1231,-3008.9669 ZM 308.7442,268.5231 c -104.4439,16.0057 -171.1571,46.7522 -198.2790 91.4058c -9.9004,16.3053 -12.3421,31.3051 -12.3421 42.1314c 0.0000,9.5330 1.8729,15.7676 2.2323 16.8846c 14.9872,62.4049 123.6410,93.0774 128.2863 94.3590c 95.0919,27.7275 167.2307,24.3188 214.2457 -10.1776c 49.6663,-36.4351 51.4406,-93.5578 51.4919 -95.9689c 0.7023,-48.0830 -13.6503,-84.7807 -42.6532 -109.1610c -53.8926,-45.2941 -138.1353,-30.3809 -142.9818 -29.4732c 0.0000,0.0000 0.0000,0.0000 0.0000 0.0000ZM 98.1231,-3008.9669 Z"/></g><g fill="rgb(35,31,32)" stroke="rgb(0,0,0)" stroke-linecap="butt" stroke-width="3.3646153846153832" font-size="2.362609705367161px" stroke-miterlimit="4.0" fill-opacity="1.0" stroke-opacity="0.0" stroke-linejoin="miter" opacity="1.0"><path d="M 98.1231,-3008.9669 ZM 136.2297,392.2854 c 0.0000,0.0000 21.2527,-56.6754 85.0128 -61.9901c 0.0000,0.0000 -67.3005,30.1100 -58.4454 61.9901c 0.0000,0.0000 -26.5674,0.0000 -26.5674 0.0000c 0.0000,0.0000 0.0000,0.0000 0.0000 0.0000ZM 98.1231,-3008.9669 Z"/></g><g fill="rgb(35,31,32)" stroke="rgb(0,0,0)" stroke-linecap="butt" stroke-width="1.7623402914946675" font-size="2.362609705367161px" stroke-miterlimit="4.0" fill-opacity="1.0" stroke-opacity="0.0" stroke-linejoin="miter" opacity="1.0"><path d="M 819.7585,1549.7174 ZM 354.1212,78.7958 c -3.4356,-6.0086 -6.3915,-9.1484 -9.6485 -9.5388c -3.3033,-0.3958 -6.1968,1.8759 -9.4162 6.7002c -1.2198,-0.0463 -2.4482,-0.0667 -3.6852 -0.0679c -3.1581,-6.2893 -5.9279,-9.5001 -9.3786 -9.5184c 0.0000,-0.0000 -0.0088,-0.0000 -0.0088 -0.0000c -3.6367,-0.0176 -6.9874,3.6938 -11.3567 11.2792c -0.6938,0.1119 -1.3897,0.2291 -2.0867 0.3507c -5.4460,-6.3183 -9.3119,-9.2280 -12.7798 -8.6407c -3.8379,0.6497 -6.0806,5.0824 -8.2255 13.4101c 0.0000,-0.0000 0.3367,0.0850 0.3367 0.0850c -0.7282,0.2108 -1.4564,0.4259 -2.1825 0.6454c 0.0000,-0.0000 0.5400,-0.4819 0.5400 -0.4819c -4.7877,-5.3976 -8.4826,-7.7371 -12.0612 -6.6787c -4.6866,1.3833 -7.9092,9.6399 -8.4395 14.0447c -1.0380,0.4012 -2.0749,0.8068 -3.1043 1.2187c 0.0000,-0.0000 -1.6920,-0.8336 -1.6920 -0.8336c -5.9849,-4.0089 -10.1315,-5.4191 -13.2843 -3.9455c -2.4191,2.2191 -4.0401,6.9960 -5.1136 13.5198c -3.1947,1.4994 -8.2685,-10.4327 -15.9959 -6.1893c -3.3162,1.8211 -4.5747,7.1391 -5.0222 16.7779c 0.0000,-0.0000 0.0220,0.0011 0.0220 0.0011c -0.0872,0.0452 -0.1743,0.0925 -0.2614 0.1399c -7.3542,-3.7626 -12.0924,-4.8770 -15.2236 -2.8462c -3.0183,1.9588 -3.8540,6.2883 -3.4098 13.4370c -0.2818,0.1679 -0.5604,0.3378 -0.8401 0.5045c -7.2499,-4.3047 -11.9375,-5.9795 -15.1365 -4.1273c -3.2183,1.8620 -4.0132,6.6712 -3.3969 15.2785c -0.8713,0.4916 -1.7522,0.9810 -2.6375 1.4672c -6.3581,-3.6357 -10.6478,-4.8178 -13.7124 -3.1925c -3.1248,1.6586 -4.2983,5.7149 -4.3833 12.5270c -0.5002,0.2431 -1.0036,0.4851 -1.5070 0.7282c -6.3947,-4.3069 -10.7091,-6.1269 -13.8984 -4.7856c -3.3259,1.4016 -4.5812,5.6117 -4.6845 13.2843c -1.0122,0.4399 -2.0276,0.8809 -3.0473 1.3198c -7.1068,-4.4532 -11.8181,-6.1807 -15.1623 -4.7952c -3.5249,1.4607 -4.8458,5.6869 -5.0071 13.0702c -0.4163,0.1657 -0.8315,0.3281 -1.2478 0.4894c -6.2871,-4.4048 -10.5704,-6.3807 -13.7812 -5.3083c -3.4410,1.1520 -4.8651,5.0964 -5.1599 12.4334c -0.1817,0.0679 -0.3647,0.1324 -0.5464 0.1989c -5.5891,-4.5629 -9.5808,-6.3560 -12.8561 -5.1717c -3.2958,1.1929 -5.0997,5.0717 -6.3162 11.8450c -0.4324,0.1441 -0.8637,0.2872 -1.2940 0.4324c -5.8763,-5.6547 -9.9627,-8.2674 -13.4402 -7.2606c -3.5410,1.0262 -5.4342,5.4148 -6.8303 13.7360c -9.6626,2.9505 -18.8690,5.5686 -27.3279 7.7877c 0.0000,-0.0000 -0.4303,4.8049 -0.4303 4.8049c 48.0771,22.0486 75.4212,20.3276 109.9935 16.8306c 7.2359,-0.3485 14.4438,-1.0799 21.6205 -2.1147c 11.0781,-0.9594 23.1985,-1.6995 36.9829 -1.6834c 14.1727,0.0110 30.2418,1.4521 46.9176 2.9430c 63.6310,5.6955 135.8672,12.1602 152.8473 -54.9925c 2.3127,-9.1355 2.5332,-18.2957 0.8616 -27.2612c -1.7114,-9.1839 -5.4008,-18.1365 -10.8522 -26.6255c -8.6590,-13.4790 -20.5234,-21.3882 -34.2497 -25.2315c 0.0000,-0.0000 0.0000,-0.0000 0.0000 -0.0000ZM 819.7585,1549.7174 Z"/></g><g fill="rgb(255,255,255)" stroke="rgb(0,0,0)" stroke-linecap="butt" stroke-width="1.7623402914946675" font-size="2.362609705367161px" stroke-miterlimit="4.0" fill-opacity="1.0" stroke-opacity="0.0" stroke-linejoin="miter" opacity="1.0"><path d="M 819.7585,1549.7174 ZM 167.7417,141.5533 c 0.1635,-3.1409 0.6325,-4.9361 1.5705 -5.4320c 1.0100,-0.5357 2.9419,0.0021 5.9644 1.5554c -2.4600,1.3015 -4.9792,2.5934 -7.5349 3.8766c 0.0000,-0.0000 0.0000,-0.0000 0.0000 -0.0000ZM 819.7585,1549.7174 ZM 147.6271,151.0621 c 0.1322,-3.8530 0.5712,-5.8860 1.4919 -6.2753c 1.0326,-0.4324 3.1452,0.5013 6.4937 2.6289c -2.6257,1.2273 -5.2922,2.4439 -7.9856 3.6464c 0.0000,-0.0000 0.0000,-0.0000 0.0000 -0.0000ZM 819.7585,1549.7174 ZM 124.3952,160.8946 c 0.1765,-3.7680 0.6981,-5.8386 1.7856 -6.2936c 1.2671,-0.5217 3.6583,0.3485 7.4252 2.5224c -3.0516,1.2747 -6.1226,2.5332 -9.2108 3.7712c 0.0000,-0.0000 0.0000,-0.0000 0.0000 -0.0000ZM 819.7585,1549.7174 ZM 104.2376,168.6575 c 0.2172,-3.5399 0.6906,-5.3750 1.5812 -5.6719c 1.0810,-0.3614 3.1560,0.5884 6.3646 2.6859c -2.6450,1.0111 -5.2976,2.0082 -7.9458 2.9860c 0.0000,-0.0000 0.0000,-0.0000 0.0000 -0.0000ZM 819.7585,1549.7174 ZM 84.9018,175.5395 c 0.6917,-3.0699 1.4575,-4.7802 2.4718 -5.1481c 1.0423,-0.3743 2.8021,0.4335 5.4449 2.3944c -2.6493,0.9380 -5.2890,1.8533 -7.9168 2.7537c 0.0000,-0.0000 0.0000,-0.0000 0.0000 -0.0000ZM 819.7585,1549.7174 ZM 63.2382,182.6431 c 0.8379,-4.4919 1.6759,-6.8088 2.7709 -7.1219c 1.1273,-0.3281 3.2237,1.1154 6.5077 4.1606c -3.1280,1.0143 -6.2205,2.0018 -9.2785 2.9613c 0.0000,-0.0000 0.0000,-0.0000 0.0000 -0.0000ZM 819.7585,1549.7174 ZM 226.7968,108.1502 c 0.3765,-5.7569 0.9950,-8.8386 2.1889 -9.4937c 1.0929,-0.6002 3.6647,0.9293 8.0265 4.3359c -3.5055,1.7113 -6.9143,3.4367 -10.2154 5.1577c 0.0000,-0.0000 0.0000,-0.0000 0.0000 -0.0000ZM 819.7585,1549.7174 ZM 207.6288,118.7206 c -0.0967,-3.5217 0.2409,-5.5611 1.1972 -6.1839c 1.0455,-0.6777 3.2839,-0.1291 6.9465 1.5511c -2.8397,1.5801 -5.5600,3.1291 -8.1437 4.6328c 0.0000,-0.0000 0.0000,-0.0000 0.0000 -0.0000ZM 819.7585,1549.7174 ZM 188.2123,130.4785 c -0.2635,-4.8340 -0.0044,-7.4177 1.0143 -8.0071c 1.0466,-0.6045 3.5249,0.3819 7.6306 2.7182c -0.7594,0.4711 -1.5005,0.9337 -2.2201 1.3833c -2.0749,1.3048 -4.2208,2.6095 -6.4248 3.9057c 0.0000,-0.0000 0.0000,-0.0000 0.0000 -0.0000ZM 819.7585,1549.7174 ZM 340.9951,76.3627 c 1.1531,-1.4371 2.0911,-2.1169 2.8816 -2.0222c 0.9218,0.1108 1.9846,1.0627 3.2732 2.8731c -2.0211,-0.3603 -4.0756,-0.6389 -6.1548 -0.8508c 0.0000,-0.0000 0.0000,-0.0000 0.0000 -0.0000ZM 819.7585,1549.7174 ZM 317.1039,76.7467 c 2.1997,-3.5346 3.7379,-5.2718 4.8705 -5.2653c 0.0000,-0.0000 -0.0088,-0.0000 -0.0088 -0.0000c 0.9842,0.0044 2.1803,1.5371 3.7723 4.5435c -2.8472,0.1388 -5.7289,0.3840 -8.6332 0.7218c 0.0000,-0.0000 0.0000,-0.0000 0.0000 -0.0000ZM 819.7585,1549.7174 ZM 271.5147,88.2142 c 1.5263,-4.2907 2.8010,-6.5797 4.0950 -6.9605c 1.1112,-0.3270 2.8580,0.9315 5.4514 3.6873c -3.1947,1.0283 -6.3818,2.1244 -9.5464 3.2732c 0.0000,-0.0000 0.0000,-0.0000 0.0000 -0.0000ZM 819.7585,1549.7174 ZM 293.2170,81.3784 c 1.2553,-4.4392 2.2858,-6.7604 3.3958 -6.9476c 1.1671,-0.1969 3.1108,1.3650 6.1172 4.6909c -3.1581,0.6648 -6.3366,1.4209 -9.5130 2.2567c 0.0000,-0.0000 0.0000,-0.0000 0.0000 -0.0000ZM 819.7585,1549.7174 ZM 247.7257,97.9477 c 0.3958,-3.8368 1.0186,-5.9774 2.0835 -6.4754c 1.1251,-0.5260 3.3119,0.3582 6.8164 2.5880c -3.0054,1.2650 -5.9763,2.5643 -8.8999 3.8874c 0.0000,-0.0000 0.0000,-0.0000 0.0000 -0.0000ZM 819.7585,1549.7174 Z"/></g><g fill="rgb(106,161,33)" stroke="rgb(0,0,0)" stroke-linecap="butt" stroke-width="1.7623402914946675" font-size="2.362609705367161px" stroke-miterlimit="4.0" fill-opacity="1.0" stroke-opacity="0.0" stroke-linejoin="miter" opacity="1.0"><path d="M 819.7585,1549.7174 ZM 336.6925,81.1827 c 0.0000,-0.0000 0.8390,0.4873 0.8390 0.4873c 0.0828,-0.1421 0.1668,-0.2786 0.2442 -0.4163c 4.4715,0.3141 8.8042,0.9616 12.9583 1.9899c 0.0989,0.1861 0.1989,0.3733 0.2990 0.5647c 0.0000,-0.0000 0.6207,-0.3281 0.6207 -0.3281c 13.0766,3.4378 24.3258,10.7188 32.4071 23.3007c 5.1061,7.9533 8.5536,16.2928 10.1391 24.8001c 1.5339,8.2362 1.3263,16.6628 -0.7992 25.0830c -1.7823,7.0423 -4.2434,13.2122 -7.2897 18.6205c -43.3895,-21.0730 -92.1711,-5.7751 -143.9786 10.4725c -26.4469,8.2932 -53.6909,16.8382 -81.2931 20.8106c -5.9419,0.5163 -11.5675,1.0896 -16.9909 1.6457c -1.3639,0.1388 -2.7117,0.2764 -4.0487 0.4130c -1.3553,0.0645 -2.7106,0.1194 -4.0649 0.1560c 0.0000,-0.0000 0.0044,0.2495 0.0044 0.2495c -30.4623,2.9774 -55.8756,3.8250 -97.0137 -13.8382c 25.5133,-7.0078 56.5328,-17.1555 86.2895 -29.0403c 26.7331,-10.6737 52.4711,-22.7586 72.3373 -35.2457c 24.7883,-15.5797 75.2275,-43.5347 119.4829 -48.9645c 3.8379,-0.4711 7.6274,-0.7691 11.3481 -0.8756c 0.0132,0.0322 0.0247,0.0612 0.0399 0.0925c 0.0000,-0.0000 0.2183,-0.0978 0.2183 -0.0978c 2.7935,-0.0742 5.5449,-0.0366 8.2502 0.1205c 0.0000,-0.0000 0.0000,-0.0000 0.0000 -0.0000ZM 819.7585,1549.7174 Z"/></g><g fill="rgb(106,161,33)" stroke="rgb(0,0,0)" stroke-linecap="butt" stroke-width="1.7623402914946675" font-size="2.362609705367161px" stroke-miterlimit="4.0" fill-opacity="1.0" stroke-opacity="0.0" stroke-linejoin="miter" opacity="1.0"><path d="M 819.7585,1549.7174 ZM 245.0065,190.2210 c 0.7820,2.6579 2.1567,6.4313 3.8465 10.0121c 1.0219,2.1760 3.0516,5.5019 4.9824 8.2814c -2.6332,-0.2291 -5.2599,-0.4658 -7.8684 -0.6970c -16.7683,-1.5038 -32.9309,-2.9484 -47.3823 -2.9645c -1.1768,-0.0000 -2.3438,0.0044 -3.4969 0.0154c 16.4262,-4.1466 32.6394,-9.2301 48.5644 -14.2233c 0.4518,-0.1441 0.9014,-0.2840 1.3542 -0.4249c 0.0000,-0.0000 0.0000,-0.0000 0.0000 -0.0000ZM 819.7585,1549.7174 Z"/></g><g fill="rgb(106,161,33)" stroke="rgb(0,0,0)" stroke-linecap="butt" stroke-width="1.7623402914946675" font-size="2.362609705367161px" stroke-miterlimit="4.0" fill-opacity="1.0" stroke-opacity="0.0" stroke-linejoin="miter" opacity="1.0"><path d="M 819.7585,1549.7174 ZM 267.3003,183.3551 c 0.8842,4.0509 2.3944,8.5234 4.3349 12.6840c 1.9211,4.1240 5.8397,10.4833 9.1258 14.4761c -7.8468,-0.4227 -15.7453,-1.0380 -23.5728 -1.7113c -2.1029,-2.8075 -4.8307,-7.1219 -6.0236 -9.6582c -1.6651,-3.5410 -3.0097,-7.2154 -3.7314 -9.6862c 6.6798,-2.0921 13.3047,-4.1531 19.8672 -6.1043c 0.0000,-0.0000 0.0000,-0.0000 0.0000 -0.0000ZM 819.7585,1549.7174 Z"/></g><g fill="rgb(106,161,33)" stroke="rgb(0,0,0)" stroke-linecap="butt" stroke-width="1.7623402914946675" font-size="2.362609705367161px" stroke-miterlimit="4.0" fill-opacity="1.0" stroke-opacity="0.0" stroke-linejoin="miter" opacity="1.0"><path d="M 819.7585,1549.7174 ZM 296.4708,175.5664 c 0.6820,4.9039 2.4396,10.2273 4.5242 15.1828c 2.9580,7.0261 7.5704,15.4302 10.3606 20.1103c -8.7687,0.3872 -17.8364,0.2560 -26.9966 -0.1657c -3.2366,-3.1689 -8.2255,-11.0673 -10.4004 -15.7346c -1.8931,-4.0627 -3.3614,-8.4234 -4.1940 -12.3344c 9.0268,-2.6472 17.9354,-5.0674 26.7062 -7.0584c 0.0000,-0.0000 0.0000,-0.0000 0.0000 -0.0000ZM 819.7585,1549.7174 Z"/></g><g fill="rgb(106,161,33)" stroke="rgb(0,0,0)" stroke-linecap="butt" stroke-width="1.7623402914946675" font-size="2.362609705367161px" stroke-miterlimit="4.0" fill-opacity="1.0" stroke-opacity="0.0" stroke-linejoin="miter" opacity="1.0"><path d="M 819.7585,1549.7174 ZM 341.0295,206.9430 c -2.0373,-2.0835 -6.3140,-9.2731 -9.8873 -18.0537c -2.3417,-5.7472 -4.3047,-12.1301 -5.0351 -18.1548c 20.0888,-1.7339 39.2729,0.3194 57.2879 8.9440c -9.9541,14.7030 -24.8249,22.9468 -42.3654 27.2644c 0.0000,-0.0000 0.0000,-0.0000 0.0000 -0.0000ZM 819.7585,1549.7174 Z"/></g><g fill="rgb(106,161,33)" stroke="rgb(0,0,0)" stroke-linecap="butt" stroke-width="1.7623402914946675" font-size="2.362609705367161px" stroke-miterlimit="4.0" fill-opacity="1.0" stroke-opacity="0.0" stroke-linejoin="miter" opacity="1.0"><path d="M 819.7585,1549.7174 ZM 323.5513,170.9723 c 0.7540,6.2936 2.7924,12.9260 5.2169 18.8830c 3.1258,7.6747 7.0122,14.2943 9.6819 17.6912c -7.7199,1.7081 -15.9271,2.6999 -24.4301 3.1807c -2.2126,-3.6819 -7.3832,-13.1799 -10.6629 -20.9697c -2.0405,-4.8501 -3.7508,-10.0390 -4.3747 -14.7503c 8.3212,-1.8114 16.5144,-3.2173 24.5689 -4.0347c 0.0000,-0.0000 0.0000,-0.0000 0.0000 -0.0000ZM 819.7585,1549.7174 Z"/></g><g fill="rgb(106,161,33)" stroke="rgb(0,0,0)" stroke-linecap="butt" stroke-width="1.7623402914946675" font-size="2.362609705367161px" stroke-miterlimit="4.0" fill-opacity="1.0" stroke-opacity="0.0" fill-rule="evenodd" stroke-linejoin="miter" opacity="1.0"><path d="M 819.7585,1549.7174 ZM 277.1457,153.3048 c 3.7658,21.3634 -17.3975,42.7849 -16.8543 62.7855c 6.1462,0.3302 10.8554,-4.0627 12.3603 -4.3284c -1.0283,0.1806 -2.0932,5.3954 -2.6827 11.2717c 4.5941,-0.4937 9.7206,-5.8182 10.8500 -6.0172c 0.3593,3.3851 -1.2338,8.4514 -0.8465 9.9637c 36.9184,-17.2706 54.8741,-57.0695 53.9728 -69.8880c 0.0000,-0.0000 -56.7995,-3.7873 -56.7995 -3.7873c 0.0000,-0.0000 0.0000,-0.0000 0.0000 -0.0000ZM 819.7585,1549.7174 Z"/></g><g fill="rgb(35,31,32)" stroke="rgb(0,0,0)" stroke-linecap="butt" stroke-width="1.7623402914946675" font-size="2.362609705367161px" stroke-miterlimit="4.0" fill-opacity="1.0" stroke-opacity="0.0" stroke-linejoin="miter" opacity="1.0"><path d="M 819.7585,1549.7174 ZM 297.6444,212.8074 c -6.3194,-1.2639 -12.4453,-3.4571 -17.8321 -6.7863c -4.4779,-2.7612 -8.4503,-6.3098 -11.5966 -10.7565c 0.9089,-2.1061 1.8759,-4.2305 2.8462 -6.3592c 7.8759,-17.3018 12.1075,-27.5721 4.8533 -45.1643c 1.1735,12.4571 -0.5809,24.9141 -9.5163 43.0442c -4.5059,9.8949 -8.9397,19.6338 -8.6762 29.3791c 0.0000,-0.0000 0.0656,2.3535 0.0656 2.3535c 3.7712,0.2022 6.8433,0.0947 10.4069 -1.5134c -0.5142,2.9537 -0.7895,5.9344 -1.0896 8.9182c 3.5884,-0.5658 5.5826,-1.3639 10.7694 -3.7034c -0.5002,3.1172 -0.4023,5.3008 0.3872 8.3890c 16.1014,-7.5327 29.0328,-17.5836 39.9183 -31.6778c 12.9680,-16.7941 19.4595,-31.3336 17.2792 -51.8408c -3.5130,16.4907 -6.7368,31.1981 -21.3311 48.7150c -4.5898,5.9397 -10.0831,11.7826 -16.4843 17.0028c 0.0000,-0.0000 0.0000,-0.0000 0.0000 -0.0000ZM 819.7585,1549.7174 Z"/></g><g fill="rgb(106,161,33)" stroke="rgb(0,0,0)" stroke-linecap="butt" stroke-width="1.7623402914946675" font-size="2.362609705367161px" stroke-miterlimit="4.0" fill-opacity="1.0" stroke-opacity="0.0" stroke-linejoin="miter" opacity="1.0"><path d="M 819.7585,1549.7174 ZM 266.5130,199.3801 c 3.2033,4.0154 7.0380,7.2897 11.2792 9.9078c 4.8791,3.0129 10.2961,5.1588 15.9056 6.5668c 0.0000,-0.0000 -10.7070,6.7486 -10.7070 6.7486c 0.0000,-0.0000 0.0861,-8.5966 0.0861 -8.5966c 0.0000,-0.0000 -10.0584,5.2330 -10.0584 5.2330c 0.0000,-0.0000 -0.8024,-10.0132 -0.8024 -10.0132c 0.0000,-0.0000 -9.2925,4.1219 -9.2925 4.1219c 0.0000,-0.0000 3.5894,-13.9684 3.5894 -13.9684c 0.0000,-0.0000 0.0000,-0.0000 0.0000 -0.0000ZM 819.7585,1549.7174 Z"/></g><g fill="rgb(106,161,33)" stroke="rgb(0,0,0)" stroke-linecap="butt" stroke-width="1.7623402914946675" font-size="2.362609705367161px" stroke-miterlimit="4.0" fill-opacity="1.0" stroke-opacity="0.0" fill-rule="evenodd" stroke-linejoin="miter" opacity="1.0"><path d="M 819.7585,1549.7174 ZM 147.8400,172.0221 c 0.5626,21.6840 -23.5448,39.7333 -25.9704 59.5919c 6.0279,1.2381 11.3384,-2.4073 12.8637 -2.4460c -1.0434,0.0258 -2.8666,5.0243 -4.3230 10.7489c 4.6178,0.1925 10.4779,-4.3144 11.6213 -4.3424c -0.1452,3.4001 -2.4718,8.1738 -2.3127 9.7271c 39.0697,-11.6062 62.7274,-48.3073 63.7353 -61.1172c 0.0000,-0.0000 -55.6142,-12.1623 -55.6142 -12.1623c 0.0000,-0.0000 0.0000,-0.0000 0.0000 -0.0000ZM 819.7585,1549.7174 Z"/></g><g fill="rgb(35,31,32)" stroke="rgb(0,0,0)" stroke-linecap="butt" stroke-width="1.7623402914946675" font-size="2.362609705367161px" stroke-miterlimit="4.0" fill-opacity="1.0" stroke-opacity="0.0" stroke-linejoin="miter" opacity="1.0"><path d="M 819.7585,1549.7174 ZM 159.2946,233.9052 c -6.0623,-2.1868 -11.7923,-5.2653 -16.6284 -9.3528c -4.0186,-3.3980 -7.4220,-7.4940 -9.8755 -12.3570c 1.2144,-1.9512 2.4858,-3.9035 3.7583 -5.8677c 10.3552,-15.9422 16.0594,-25.4724 11.4954 -43.9477c -0.6873,12.4947 -4.2660,24.5549 -15.7916 41.1586c -5.9247,9.1193 -11.7514,18.0935 -12.9325 27.7700c 0.0000,-0.0000 -0.2851,2.3384 -0.2851 2.3384c 3.6992,0.7573 6.7529,1.1036 10.5155 0.0463c -0.9444,2.8440 -1.6619,5.7493 -2.4008 8.6547c 3.6335,-0.0258 5.7246,-0.5195 11.2007 -2.0620c -0.9562,3.0043 -1.1832,5.1814 -0.8594 8.3492c 17.0383,-5.0620 31.3153,-13.0852 44.1715 -25.4122c 15.3151,-14.6847 23.8891,-28.1013 24.7700 -48.7075c -5.9193,15.7916 -11.2835,29.8578 -28.3143 45.0191c -5.4191,5.1943 -11.7192,10.1573 -18.8238 14.3707c 0.0000,-0.0000 0.0000,-0.0000 0.0000 -0.0000ZM 819.7585,1549.7174 Z"/></g><g fill="rgb(106,161,33)" stroke="rgb(0,0,0)" stroke-linecap="butt" stroke-width="1.7623402914946675" font-size="2.362609705367161px" stroke-miterlimit="4.0" fill-opacity="1.0" stroke-opacity="0.0" stroke-linejoin="miter" opacity="1.0"><path d="M 819.7585,1549.7174 ZM 130.4984,216.0129 c 2.5730,4.4456 5.8817,8.2513 9.6851 11.4675c 4.3811,3.7045 9.4194,6.6292 14.7590 8.8537c 0.0000,-0.0000 -11.5901,5.0878 -11.5901 5.0878c 0.0000,-0.0000 1.3585,-8.4890 1.3585 -8.4890c 0.0000,-0.0000 -10.7210,3.6841 -10.7210 3.6841c 0.0000,-0.0000 0.6895,-10.0218 0.6895 -10.0218c 0.0000,-0.0000 -9.7991,2.7009 -9.7991 2.7009c 0.0000,-0.0000 5.6181,-13.2832 5.6181 -13.2832c 0.0000,-0.0000 0.0000,-0.0000 0.0000 -0.0000ZM 819.7585,1549.7174 Z"/></g><g fill="rgb(106,161,33)" stroke="rgb(0,0,0)" stroke-linecap="butt" stroke-width="1.7623402914946675" font-size="2.362609705367161px" stroke-miterlimit="4.0" fill-opacity="1.0" stroke-opacity="0.0" fill-rule="evenodd" stroke-linejoin="miter" opacity="1.0"><path d="M 819.7585,1549.7174 ZM 408.8006,70.2885 c -0.7874,1.2606 -1.1617,2.7891 -0.9573 4.3703c 0.4690,3.6475 3.8250,6.2398 7.4704 5.7708c 3.3323,-0.4270 5.7805,-3.2635 5.8225 -6.5302c 0.0000,-0.0000 -12.3355,-3.6109 -12.3355 -3.6109c 0.0000,-0.0000 0.0000,-0.0000 0.0000 -0.0000ZM 819.7585,1549.7174 Z"/></g><g fill="rgb(35,31,32)" stroke="rgb(0,0,0)" stroke-linecap="butt" stroke-width="1.7623402914946675" font-size="2.362609705367161px" stroke-miterlimit="4.0" fill-opacity="1.0" stroke-opacity="0.0" fill-rule="evenodd" stroke-linejoin="miter" opacity="1.0"><path d="M 819.7585,1549.7174 ZM 265.0124,100.9240 c -4.1208,1.0111 -6.9702,3.9326 -6.3937 6.6249c 0.5970,2.7644 4.5952,4.2649 8.9064 3.3367c 1.8533,-0.3991 3.4711,-1.1854 4.6640 -2.1707c -0.1161,0.0291 -0.2323,0.0549 -0.3507 0.0806c -4.3090,0.9293 -8.3083,-0.5723 -8.9053 -3.3367c -0.3378,-1.5758 0.4980,-3.2313 2.0792 -4.5349c 0.0000,-0.0000 0.0000,-0.0000 0.0000 -0.0000ZM 819.7585,1549.7174 ZM 184.3884,150.9050 c -5.1244,2.0846 -8.2083,6.4668 -6.8734 9.7572c 1.3392,3.2861 6.6088,4.2714 11.7353 2.1846c 1.0918,-0.4464 2.0911,-0.9939 2.9763 -1.6145c -4.6748,1.4220 -9.1731,0.3420 -10.3961 -2.6612c -1.0509,-2.5869 0.6336,-5.8494 3.8949 -8.1394c -0.4453,0.1355 -0.8906,0.2904 -1.3370 0.4733c 0.0000,-0.0000 0.0000,-0.0000 0.0000 -0.0000ZM 819.7585,1549.7174 ZM 219.5438,149.1582 c -6.1667,2.0201 -10.1391,6.8852 -8.8536 10.8490c 1.2886,3.9745 7.3929,5.5783 13.5865 3.5668c 1.6253,-0.5260 3.0979,-1.2499 4.3693 -2.1061c -0.0198,0.0066 -0.0388,0.0132 -0.0549 0.0176c -6.1936,2.0115 -12.2968,0.4077 -13.5854 -3.5679c -0.9509,-2.9333 0.9745,-6.3581 4.5381 -8.7590c 0.0000,-0.0000 0.0000,-0.0000 0.0000 -0.0000ZM 819.7585,1549.7174 ZM 212.6026,127.0999 c -5.4331,3.5894 -7.9845,9.3571 -5.6826 12.8454c 2.3019,3.4873 8.6106,3.4055 14.0458 -0.1839c 0.0066,-0.0044 0.0132,-0.0088 0.0225 -0.0154c -4.1294,1.3198 -8.0447,0.6970 -9.7529 -1.8899c -2.3008,-3.4829 0.2409,-9.2398 5.6547 -12.8282c -1.4295,0.4582 -2.8881,1.1477 -4.2875 2.0717c 0.0000,-0.0000 0.0000,-0.0000 0.0000 -0.0000ZM 819.7585,1549.7174 ZM 243.0585,118.3850 c -5.4353,3.5884 -7.9878,9.3571 -5.6848 12.8454c 2.3030,3.4873 8.6116,3.4055 14.0447 -0.1839c 0.0088,-0.0021 0.0132,-0.0088 0.0220 -0.0132c -4.1273,1.3198 -8.0426,0.6970 -9.7507 -1.8920c -2.2987,-3.4808 0.2410,-9.2377 5.6568 -12.8282c -1.4338,0.4582 -2.8903,1.1477 -4.2875 2.0728c 0.0000,-0.0000 0.0000,-0.0000 0.0000 -0.0000ZM 819.7585,1549.7174 ZM 252.8157,144.1951 c -6.1075,2.2621 -9.9002,7.3036 -8.4481 11.2233c 1.4500,3.9175 7.6145,5.2685 13.7188 3.0054c 1.3510,-0.5023 2.5902,-1.1370 3.6841 -1.8673c -5.8956,1.9448 -11.6880,0.5539 -13.0885 -3.2291c -1.1316,-3.0505 0.9186,-6.7819 4.7640 -9.3517c -0.2108,0.0698 -0.4217,0.1410 -0.6303 0.2194c 0.0000,-0.0000 0.0000,-0.0000 0.0000 -0.0000ZM 819.7585,1549.7174 ZM 273.1906,117.9934 c -4.7436,1.4371 -7.9813,4.6920 -7.6285 8.0975c 0.4313,4.1563 6.0656,6.9971 12.5420 6.3248c 3.0172,-0.3119 5.6977,-1.3349 7.6575 -2.7569c -1.0487,0.3162 -2.1696,0.5454 -3.3431 0.6680c -6.4754,0.6723 -12.1097,-2.1696 -12.5420 -6.3259c -0.2302,-2.2191 1.0692,-4.3757 3.3141 -6.0075c 0.0000,-0.0000 0.0000,-0.0000 0.0000 -0.0000ZM 819.7585,1549.7174 ZM 294.1506,96.9828 c -4.7425,1.4371 -7.9834,4.6930 -7.6306 8.0975c 0.4324,4.1552 6.0656,6.9982 12.5420 6.3248c 3.0172,-0.3130 5.6998,-1.3338 7.6575 -2.7580c -1.0498,0.3184 -2.1685,0.5464 -3.3420 0.6680c -6.4765,0.6733 -12.1107,-2.1696 -12.5420 -6.3248c -0.2291,-2.2201 1.0692,-4.3768 3.3151 -6.0075c 0.0000,-0.0000 0.0000,-0.0000 0.0000 -0.0000ZM 819.7585,1549.7174 ZM 309.3495,116.9727 c -4.9889,1.6027 -8.4008,4.9749 -8.2384 8.7117c 0.2130,4.9932 6.7335,8.7956 14.5169 8.4610c 3.8659,-0.1646 7.3316,-1.3198 9.8164 -3.0527c -1.6780,0.5410 -3.5378,0.8809 -5.5019 0.9649c -7.7812,0.3334 -14.3040,-3.4700 -14.5191 -8.4643c -0.1064,-2.5138 1.4048,-4.8630 3.9261 -6.6206c 0.0000,-0.0000 0.0000,-0.0000 0.0000 -0.0000ZM 819.7585,1549.7174 ZM 328.3358,90.2611 c -5.4181,1.7910 -9.0709,5.5880 -8.6557 9.5485c 0.5206,4.9738 7.2660,8.3664 15.0128 7.5532c 3.4163,-0.3571 6.4679,-1.4736 8.7730 -3.0387c -1.3833,0.4593 -2.8817,0.7831 -4.4586 0.9498c -7.7489,0.8121 -14.4911,-2.5805 -15.0128 -7.5532c -0.2915,-2.7795 1.4188,-5.4772 4.3413 -7.4596c 0.0000,-0.0000 0.0000,-0.0000 0.0000 -0.0000ZM 819.7585,1549.7174 ZM 74.6552,185.8786 c -4.4080,1.2262 -7.4370,4.2714 -7.0068 7.3230c 0.4959,3.4894 5.3331,5.7084 10.7715 4.9383c 2.4901,-0.3528 4.6844,-1.2736 6.2861 -2.5009c -0.6314,0.1754 -1.2897,0.3141 -1.9717 0.4109c -5.4396,0.7712 -10.2757,-1.4478 -10.7715 -4.9372c -0.2678,-1.8920 0.7960,-3.7798 2.6923 -5.2341c 0.0000,-0.0000 0.0000,-0.0000 0.0000 -0.0000ZM 819.7585,1549.7174 ZM 103.0415,179.1311 c -3.7110,0.8315 -6.3409,3.3130 -5.9914 5.8010c 0.3840,2.6934 4.1133,4.4037 8.3115 3.8089c 2.1384,-0.3012 3.9939,-1.1499 5.2513 -2.2610c -0.3044,0.0679 -0.6185,0.1269 -0.9358 0.1709c -4.1982,0.5948 -7.9286,-1.1176 -8.3115 -3.8089c -0.1861,-1.3209 0.4679,-2.6386 1.6759 -3.7110c 0.0000,-0.0000 0.0000,-0.0000 0.0000 -0.0000ZM 819.7585,1549.7174 ZM 124.9750,171.0347 c -5.7192,2.3255 -9.1634,7.2176 -7.6704 10.8899c 1.4930,3.6679 7.3714,4.7651 13.0917 2.4374c 1.1262,-0.4582 2.1642,-1.0165 3.0946 -1.6457c -5.3148,1.7146 -10.4865,0.5271 -11.8730 -2.8806c -1.1983,-2.9473 0.7831,-6.6819 4.5715 -9.2430c -0.4055,0.1302 -0.8100,0.2775 -1.2144 0.4421c 0.0000,-0.0000 0.0000,-0.0000 0.0000 -0.0000ZM 819.7585,1549.7174 Z"/></g><g fill="rgb(35,31,32)" stroke="rgb(0,0,0)" stroke-linecap="butt" stroke-width="1.7623402914946675" font-size="2.362609705367161px" stroke-miterlimit="4.0" fill-opacity="1.0" stroke-opacity="0.0" stroke-linejoin="miter" opacity="1.0"><path d="M 819.7585,1549.7174 ZM 437.3978,132.3265 c 2.6794,3.0140 5.3255,5.6945 7.5532 7.5016c 2.5826,2.0943 4.9372,3.0957 6.7884 2.4406c 0.0000,-0.0000 1.0036,-0.6271 1.0036 -0.6271c 1.1348,-1.0993 1.8286,-3.2528 2.1298 -6.1484c 0.2474,-2.3524 0.3023,-5.3072 0.1903 -8.6202c 1.7081,-0.5324 3.4195,-1.0703 5.1362 -1.6113c 1.4672,3.2721 2.9473,6.1968 4.2908 8.3244c 1.7630,2.7988 3.6314,4.5435 5.5159 4.6425c 0.0000,-0.0000 1.1854,-0.1989 1.1854 -0.1989c 1.7662,-0.7336 3.4087,-3.2850 4.8200 -7.0218c 1.1757,-3.1097 2.3567,-7.2767 3.4163 -11.9762c 0.5217,-0.1731 1.0358,-0.3474 1.5554 -0.5228c 1.1133,2.2492 2.2083,4.2079 3.2205 5.6859c 1.5672,2.2825 3.2280,3.6712 4.9437 3.7594c 0.0000,-0.0000 1.1897,-0.1958 1.1897 -0.1958c 1.6081,-0.6701 3.0914,-2.7924 4.3768 -5.9236c 0.9896,-2.4062 1.9835,-5.5514 2.9053 -9.1365c 1.0649,-0.3851 2.1233,-0.7745 3.1839 -1.1671c 1.4715,3.3592 2.9828,6.4377 4.3854 8.7805c 1.9147,3.2011 3.9379,5.2373 5.9440 5.3417c 0.0000,-0.0000 1.1897,-0.1958 1.1897 -0.1958c 1.9394,-0.8099 3.7863,-3.9627 5.3556 -8.5374c 1.2284,-3.5840 2.4428,-8.2212 3.4926 -13.3133c 2.3266,4.0261 4.7716,7.8909 6.9465 10.7790c 2.7967,3.7088 5.5321,6.0183 7.7974 5.7278c 0.0000,-0.0000 1.1284,-0.4163 1.1284 -0.4163c 1.9050,-1.2209 3.3614,-5.2664 4.2907 -10.8436c 0.7175,-4.3284 1.2434,-9.7776 1.4984 -15.5786c 0.8368,-0.4432 1.6737,-0.8853 2.4977 -1.3338c 4.0961,-2.2223 7.6231,-4.6005 10.6134 -7.0799c 7.4876,-6.2043 11.7095,-13.0906 13.3068 -19.8715c 0.0000,-0.0000 0.0018,0.0088 0.0018 0.0088c 1.6307,-6.9100 0.5282,-13.6672 -2.6300 -19.4864c -0.9218,-1.7028 -2.0201,-3.3205 -3.2689 -4.8296c -3.4474,-4.1563 -8.0856,-7.0250 -13.2918 -8.7310c -6.6217,-2.1707 -14.1813,-2.4772 -21.3441 -1.1843c -7.1703,1.2962 -14.0092,4.2166 -19.1648 8.4890c -3.4119,2.8268 -6.0903,6.2430 -7.6769 10.1767c -0.9982,0.3033 -1.8931,0.5862 -2.9053 0.9025c -15.9766,5.0190 -56.3478,17.7052 -72.8288 7.4994c -13.0691,-10.1380 -27.7173,-12.5076 -40.9757 -9.0161c -8.5761,2.2589 -16.5467,6.9734 -23.0963 13.6231c -6.5206,6.6195 -11.6449,15.1559 -14.5632 25.0852c -5.7429,19.5359 -2.9612,44.4866 14.5460 70.7808c 0.0000,-0.0000 1.5586,2.3438 1.5586 2.3438c 0.0000,-0.0000 2.3040,-1.6146 2.3040 -1.6146c 12.0967,-8.4793 39.5085,-16.8963 71.0142 -26.5674c 0.1560,-0.0474 0.3130,-0.0958 0.4690 -0.1441c 0.0000,-0.0000 0.0000,-0.0000 0.0000 -0.0000ZM 819.7585,1549.7174 Z"/></g><g fill="rgb(106,161,33)" stroke="rgb(0,0,0)" stroke-linecap="butt" stroke-width="1.7623402914946675" font-size="2.362609705367161px" stroke-miterlimit="4.0" fill-opacity="1.0" stroke-opacity="0.0" stroke-linejoin="miter" opacity="1.0"><path d="M 819.7585,1549.7174 ZM 365.1369,152.9896 c -15.1688,-23.9245 -17.5266,-46.3583 -12.3656 -63.9289c 2.6547,-9.0311 7.2961,-16.7769 13.1950 -22.7618c 5.8655,-5.9559 12.9701,-10.1702 20.5976 -12.1785c 11.7235,-3.0860 24.7367,-0.9358 36.3784 8.1749c 0.0000,-0.0000 0.2399,0.1743 0.2399 0.1743c 18.5947,11.6019 60.7612,-1.6457 77.4391 -6.8863c 1.9168,-0.6023 3.5432,-1.1144 4.1477 -1.2929c 0.0000,-0.0000 1.3822,-0.4120 1.3822 -0.4120c 0.0000,-0.0000 0.4464,-1.3618 0.4464 -1.3618c 1.1466,-3.4905 3.4270,-6.5281 6.4431 -9.0268c 4.4037,-3.6497 10.3488,-6.1592 16.6553 -7.2983c 6.3173,-1.1423 12.9282,-0.8906 18.6539 0.9842c 4.2735,1.4016 8.0415,3.7034 10.7694 6.9981c 1.0348,1.2467 1.9319,2.5697 2.6837 3.9519c 2.5288,4.6640 3.4130,10.0777 2.1072 15.6098c 0.0000,-0.0000 0.0044,0.0110 0.0044 0.0110c -1.3360,5.6654 -4.9673,11.4997 -11.4610 16.8834c -2.7354,2.2664 -5.9688,4.4467 -9.7378 6.4915c -1.4295,0.7766 -2.8838,1.5446 -4.3596 2.3030c 0.0000,-0.0000 -0.8906,-0.0198 -0.8906 -0.0198c -0.0044,0.1593 -0.0088,0.3195 -0.0132 0.4797c -29.6588,15.0860 -68.2498,26.9331 -102.1295 37.3336c -30.0944,9.2387 -56.5059,17.3470 -70.1860 25.7714c 0.0000,-0.0000 0.0000,-0.0000 0.0000 -0.0000ZM 819.7585,1549.7174 Z"/></g><g fill="rgb(255,255,255)" stroke="rgb(0,0,0)" stroke-linecap="butt" stroke-width="1.7623402914946675" font-size="2.362609705367161px" stroke-miterlimit="4.0" fill-opacity="1.0" stroke-opacity="0.0" stroke-linejoin="miter" opacity="1.0"><path d="M 819.7585,1549.7174 ZM 473.2986,121.0580 c -0.7820,3.0957 -1.6070,5.8332 -2.4331 8.0114c -0.4270,1.1337 -0.7981,2.0556 -1.0939 2.7171c -0.1527,-0.3087 -0.3582,-0.6830 -0.6314 -1.1144c -1.1434,-1.8168 -2.4073,-4.2907 -3.6809 -7.0799c 2.6095,-0.8347 5.2223,-1.6769 7.8393 -2.5342c 0.0000,-0.0000 0.0000,-0.0000 0.0000 -0.0000ZM 819.7585,1549.7174 Z"/></g><g fill="rgb(255,255,255)" stroke="rgb(0,0,0)" stroke-linecap="butt" stroke-width="1.7623402914946675" font-size="2.362609705367161px" stroke-miterlimit="4.0" fill-opacity="1.0" stroke-opacity="0.0" stroke-linejoin="miter" opacity="1.0"><path d="M 819.7585,1549.7174 ZM 491.2942,114.9633 c -0.5529,1.8437 -1.1079,3.4625 -1.6565 4.7942c -0.2646,0.6486 -0.5002,1.2026 -0.7013 1.6468c -0.0515,-0.0947 -0.1161,-0.1978 -0.1914 -0.3055c -0.7745,-1.1294 -1.6253,-2.6310 -2.5073 -4.3779c 1.6877,-0.5808 3.3754,-1.1649 5.0566 -1.7576c 0.0000,-0.0000 0.0000,-0.0000 0.0000 -0.0000ZM 819.7585,1549.7174 Z"/></g><g fill="rgb(255,255,255)" stroke="rgb(0,0,0)" stroke-linecap="butt" stroke-width="1.7623402914946675" font-size="2.362609705367161px" stroke-miterlimit="4.0" fill-opacity="1.0" stroke-opacity="0.0" stroke-linejoin="miter" opacity="1.0"><path d="M 819.7585,1549.7174 ZM 537.1738,96.1557 c -0.2764,4.4026 -0.7078,8.4739 -1.2639 11.8106c -0.4442,2.6751 -0.8745,4.7554 -1.2596 5.9645c -0.4754,-0.6217 -1.2209,-1.6103 -2.1459 -2.8397c -1.9566,-2.5966 -4.1821,-6.0946 -6.3313 -9.7948c 3.7648,-1.6705 7.4402,-3.3818 11.0006 -5.1405c 0.0000,-0.0000 0.0000,-0.0000 0.0000 -0.0000ZM 819.7585,1549.7174 Z"/></g><g fill="rgb(255,255,255)" stroke="rgb(0,0,0)" stroke-linecap="butt" stroke-width="1.7623402914946675" font-size="2.362609705367161px" stroke-miterlimit="4.0" fill-opacity="1.0" stroke-opacity="0.0" stroke-linejoin="miter" opacity="1.0"><path d="M 819.7585,1549.7174 ZM 515.0219,106.0269 c -0.8057,3.4668 -1.6662,6.5851 -2.5353 9.1129c -0.6239,1.8178 -1.1617,3.2463 -1.5780 4.1509c -0.2431,-0.4529 -0.5733,-1.0606 -1.0133 -1.7931c -1.2230,-2.0448 -2.5816,-4.8167 -3.9412 -7.9049c 3.0559,-1.1671 6.0806,-2.3546 9.0677 -3.5658c 0.0000,-0.0000 0.0000,-0.0000 0.0000 -0.0000ZM 819.7585,1549.7174 Z"/></g><g fill="rgb(255,255,255)" stroke="rgb(0,0,0)" stroke-linecap="butt" stroke-width="1.7623402914946675" font-size="2.362609705367161px" stroke-miterlimit="4.0" fill-opacity="1.0" stroke-opacity="0.0" stroke-linejoin="miter" opacity="1.0"><path d="M 819.7585,1549.7174 ZM 449.5903,128.5735 c 0.0474,2.5127 -0.0066,4.6780 -0.1817 6.3646c -0.0582,0.5475 -0.1130,1.0219 -0.1690 1.4177c -0.2044,-0.2280 -0.4711,-0.4991 -0.8272 -0.7874c -1.4887,-1.2069 -3.2829,-2.9656 -5.1975 -5.0276c 2.1104,-0.6497 4.2370,-1.3048 6.3754 -1.9674c 0.0000,-0.0000 0.0000,-0.0000 0.0000 -0.0000ZM 819.7585,1549.7174 Z"/></g><g fill="rgb(35,31,32)" stroke="rgb(0,0,0)" stroke-linecap="butt" stroke-width="1.7623402914946675" font-size="2.362609705367161px" stroke-miterlimit="4.0" fill-opacity="1.0" stroke-opacity="0.0" fill-rule="evenodd" stroke-linejoin="miter" opacity="1.0"><path d="M 819.7585,1549.7174 ZM 550.8388,46.6748 c -3.0150,-1.5403 -14.3900,-6.7766 -21.2698 -5.6719c -7.2380,1.1628 -9.3807,9.2506 4.8964 6.3044c 0.0000,-0.0000 7.0154,-1.4478 7.0154 -1.4478c 0.0000,-0.0000 9.3581,0.8153 9.3581 0.8153c 0.0000,-0.0000 0.0000,-0.0000 0.0000 -0.0000ZM 819.7585,1549.7174 Z"/></g><g fill="rgb(35,31,32)" stroke="rgb(0,0,0)" stroke-linecap="butt" stroke-width="1.7623402914946675" font-size="2.362609705367161px" stroke-miterlimit="4.0" fill-opacity="1.0" stroke-opacity="0.0" stroke-linejoin="miter" opacity="1.0"><path d="M 819.7585,1549.7174 ZM 376.9378,62.4481 c -2.5600,5.0964 -3.6830,10.9781 -2.9042 17.0393c 2.0782,16.2014 16.9888,27.7184 33.1902 25.6380c 8.1018,-1.0391 15.0322,-5.2879 19.6757 -11.3007c 4.2434,-5.4933 6.5776,-12.4668 6.1549 -19.8102c 0.0000,-0.0000 -44.8050,-13.1121 -44.8050 -13.1121c 0.0000,-0.0000 1.0369,5.7795 1.0369 5.7795c 0.0000,-0.0000 -12.3484,-4.2338 -12.3484 -4.2338c 0.0000,-0.0000 0.0000,-0.0000 0.0000 -0.0000ZM 819.7585,1549.7174 Z"/></g><g fill="rgb(255,255,255)" stroke="rgb(0,0,0)" stroke-linecap="butt" stroke-width="1.7623402914946675" font-size="2.362609705367161px" stroke-miterlimit="4.0" fill-opacity="1.0" stroke-opacity="0.0" fill-rule="evenodd" stroke-linejoin="miter" opacity="1.0"><path d="M 819.7585,1549.7174 ZM 382.7269,66.8013 c -2.1007,4.1079 -3.0301,8.8655 -2.3998 13.7715c 1.6619,12.9540 13.5854,22.1637 26.5394 20.5008c 12.5464,-1.6102 21.5786,-12.8421 20.6266 -25.3143c 0.0000,-0.0000 -36.4289,-10.6607 -36.4289 -10.6607c 0.0000,-0.0000 0.8713,4.8598 0.8713 4.8598c 0.0000,-0.0000 -9.2086,-3.1570 -9.2086 -3.1570c 0.0000,-0.0000 0.0000,-0.0000 0.0000 -0.0000ZM 819.7585,1549.7174 Z"/></g><g fill="rgb(35,31,32)" stroke="rgb(0,0,0)" stroke-linecap="butt" stroke-width="1.7623402914946675" font-size="2.362609705367161px" stroke-miterlimit="4.0" fill-opacity="1.0" stroke-opacity="0.0" fill-rule="evenodd" stroke-linejoin="miter" opacity="1.0"><path d="M 819.7585,1549.7174 ZM 411.6307,75.5344 c -0.2668,-2.0760 -0.8196,-4.0337 -1.5425 -5.8343c 0.0000,-0.0000 -12.9486,-3.7884 -12.9486 -3.7884c -1.1251,3.3001 -1.8802,7.3897 -1.3349 11.6525c 1.2865,10.0089 9.1398,17.2975 10.2455 17.1544c 1.1090,-0.1419 6.8669,-9.1785 5.5805 -19.1842c 0.0000,-0.0000 0.0000,-0.0000 0.0000 -0.0000ZM 819.7585,1549.7174 Z"/></g><g fill="rgb(35,31,32)" stroke="rgb(0,0,0)" stroke-linecap="butt" stroke-width="1.7623402914946675" font-size="2.362609705367161px" stroke-miterlimit="4.0" fill-opacity="1.0" stroke-opacity="0.0" stroke-linejoin="miter" opacity="1.0"><path d="M 819.7585,1549.7174 ZM 470.2147,183.2454 c -1.3144,-4.8286 -2.8117,-9.2592 -4.2886 -12.6507c -1.7920,-4.1100 -3.7874,-6.9336 -5.7547 -7.6177c 0.0000,-0.0000 -1.0552,-0.1507 -1.0552 -0.1507c -2.0857,0.1205 -4.1886,2.2546 -6.1548 5.5256c -0.6228,1.0369 -1.2585,2.2094 -1.8996 3.4722c -0.1441,-1.4672 -0.3195,-2.8268 -0.5270 -4.0509c -0.6583,-3.8766 -1.7877,-6.6970 -3.3894 -7.7963c 0.0000,-0.0000 -0.9874,-0.4227 -0.9874 -0.4227c -1.9867,-0.4206 -4.4758,0.9885 -7.1305 3.4851c -2.0147,1.8942 -4.2854,4.4575 -6.5259 7.2423c -6.6981,-5.3266 -13.0960,-12.9153 -19.5563 -20.5857c -4.0638,-4.8189 -8.1491,-9.6658 -12.4065 -14.0802c -8.4126,-8.7160 -15.8098,-14.0006 -22.2368 -16.4725c -6.1043,-2.3503 -11.4062,-2.2373 -15.9346 -0.1516c -4.4381,2.0513 -7.9845,5.9720 -10.6909 11.3083c -3.8089,7.5037 -5.9806,17.9310 -6.6583 29.8395c -0.1903,3.3259 -0.1485,6.5001 0.1086 9.5270c 1.4102,16.5499 9.2882,28.1336 21.4720 35.8492c 11.9010,7.5349 27.8571,11.2749 45.8150 12.2968c 10.0821,0.5765 20.8310,0.2947 31.8596 -0.6454c 13.6489,-1.1649 23.3641,0.6852 34.6767 2.8354c 10.5069,1.9964 22.3530,4.2488 39.6537 4.7113c 14.8773,0.4001 24.8636,-3.6798 29.7115 -9.1279c 2.0997,-2.3589 3.2936,-4.9824 3.5679 -7.6651c 0.2829,-2.7225 -0.3808,-5.4643 -2.0028 -8.0082c -2.0706,-3.2528 -5.7816,-6.1667 -11.1308 -8.1975c 0.1344,-4.0251 0.0526,-7.6887 -0.2614 -10.5897c -0.4066,-3.7540 -1.3349,-6.5270 -2.8300 -7.7070c 0.0000,-0.0000 -0.9584,-0.4851 -0.9584 -0.4851c -2.2244,-0.6303 -5.3890,1.1735 -8.8096 4.2477c -3.1958,2.8698 -6.9121,6.9153 -10.2047 10.8684c -0.0634,-0.0044 -0.1291,-0.0110 -0.1958 -0.0154c -1.2424,-4.2305 -2.6042,-8.0362 -3.9358 -10.9479c -1.6780,-3.6690 -3.5367,-6.1710 -5.3987 -6.8175c 0.0000,-0.0000 -1.0531,-0.1507 -1.0531 -0.1507c -2.1265,0.1227 -4.2746,2.3438 -6.2807 5.7257c -1.2843,2.1642 -2.6385,4.9179 -3.9411 7.8791c -1.0531,-3.3980 -2.1771,-6.4754 -3.2829 -8.9537c -1.7329,-3.8863 -3.6604,-6.5442 -5.5729 -7.2111c 0.0000,-0.0000 -1.0552,-0.1496 -1.0552 -0.1496c -2.1427,0.1238 -4.3198,2.3955 -6.3495 5.8451c -1.6651,2.8322 -3.4442,6.6314 -5.0727 10.5779c -1.0993,-0.1839 -2.2083,-0.3776 -3.3324 -0.5862c 0.0000,-0.0000 0.0000,-0.0000 0.0000 -0.0000ZM 819.7585,1549.7174 Z"/></g><g fill="rgb(106,161,33)" stroke="rgb(0,0,0)" stroke-linecap="butt" stroke-width="1.7623402914946675" font-size="2.362609705367161px" stroke-miterlimit="4.0" fill-opacity="1.0" stroke-opacity="0.0" stroke-linejoin="miter" opacity="1.0"><path d="M 819.7585,1549.7174 ZM 396.5910,139.4268 c 4.1230,4.2703 8.1502,9.0483 12.1537 13.7984c 10.4983,12.4582 20.8417,24.7345 33.3741 28.6241c 25.9274,8.0448 41.8545,9.2635 62.3628 10.8328c 6.7228,0.5152 13.9436,1.0670 22.1712 1.9147c 9.9540,1.0240 16.1057,4.3424 18.6076 8.2696c 0.9229,1.4510 1.3080,2.9914 1.1499 4.4994c -0.1593,1.5489 -0.8906,3.1140 -2.1889 4.5704c -3.8820,4.3660 -12.3743,7.6210 -25.4681 7.2682c -17.0350,-0.4561 -28.5552,-2.6461 -38.7792 -4.5909c -11.7342,-2.2298 -21.8120,-4.1466 -36.1590 -2.9236c -10.7543,0.9165 -21.2376,1.1886 -31.0797 0.6293c -17.1028,-0.9756 -32.1715,-4.4564 -43.1948 -11.4384c -10.7414,-6.8003 -17.6879,-17.0329 -18.9368 -31.6735c -0.2323,-2.7407 -0.2668,-5.6536 -0.0925 -8.7483c 0.6389,-11.1953 2.6213,-20.8815 6.0763 -27.6904c 2.1427,-4.2230 4.8340,-7.2746 8.0964 -8.7783c 3.1764,-1.4661 7.0412,-1.4876 11.6482 0.2840c 5.7149,2.1997 12.4453,7.0541 20.2587 15.1526c 0.0000,-0.0000 0.0000,-0.0000 0.0000 -0.0000ZM 819.7585,1549.7174 Z"/></g><g fill="rgb(255,255,255)" stroke="rgb(0,0,0)" stroke-linecap="butt" stroke-width="1.7623402914946675" font-size="2.362609705367161px" stroke-miterlimit="4.0" fill-opacity="1.0" stroke-opacity="0.0" stroke-linejoin="miter" opacity="1.0"><path d="M 819.7585,1549.7174 ZM 522.4159,188.6484 c 2.4482,-2.7913 4.9577,-5.4223 7.1423 -7.3843c 1.3220,-1.1875 2.3879,-2.1169 3.0215 -2.6246c 0.1485,0.6917 0.2958,1.7436 0.4410 3.0753c 0.2474,2.2987 0.3356,5.1760 0.2679 8.3804c -1.8824,-0.4206 -3.9089,-0.7497 -6.0796 -0.9724c -1.6371,-0.1690 -3.2345,-0.3270 -4.7931 -0.4744c 0.0000,-0.0000 0.0000,-0.0000 0.0000 -0.0000ZM 819.7585,1549.7174 Z"/></g><g fill="rgb(255,255,255)" stroke="rgb(0,0,0)" stroke-linecap="butt" stroke-width="1.7623402914946675" font-size="2.362609705367161px" stroke-miterlimit="4.0" fill-opacity="1.0" stroke-opacity="0.0" stroke-linejoin="miter" opacity="1.0"><path d="M 819.7585,1549.7174 ZM 499.5358,186.7800 c 1.3284,-3.0796 2.7192,-5.9505 4.0165 -8.1405c 0.6185,-1.0391 1.1155,-1.8695 1.4414 -2.3955c 0.4034,0.6680 0.9390,1.7393 1.5694 3.1129c 1.0100,2.2169 2.0556,5.0330 3.0473 8.2029c -1.5973,-0.1258 -3.1624,-0.2453 -4.7038 -0.3625c -1.8221,-0.1399 -3.6099,-0.2786 -5.3707 -0.4173c 0.0000,-0.0000 0.0000,-0.0000 0.0000 -0.0000ZM 819.7585,1549.7174 Z"/></g><g fill="rgb(255,255,255)" stroke="rgb(0,0,0)" stroke-linecap="butt" stroke-width="1.7623402914946675" font-size="2.362609705367161px" stroke-miterlimit="4.0" fill-opacity="1.0" stroke-opacity="0.0" stroke-linejoin="miter" opacity="1.0"><path d="M 819.7585,1549.7174 ZM 479.1372,184.6868 c 1.3887,-3.2667 2.8526,-6.3345 4.2198 -8.6557c 0.6454,-1.0993 1.1681,-1.9717 1.5038 -2.5159c 0.4410,0.7239 1.0315,1.9254 1.7264 3.4797c 1.0756,2.4105 2.1836,5.4901 3.2248 8.9419c -3.5583,-0.3485 -7.0832,-0.7497 -10.6747 -1.2499c 0.0000,-0.0000 0.0000,-0.0000 0.0000 -0.0000ZM 819.7585,1549.7174 Z"/></g><g fill="rgb(255,255,255)" stroke="rgb(0,0,0)" stroke-linecap="butt" stroke-width="1.7623402914946675" font-size="2.362609705367161px" stroke-miterlimit="4.0" fill-opacity="1.0" stroke-opacity="0.0" stroke-linejoin="miter" opacity="1.0"><path d="M 819.7585,1549.7174 ZM 453.5712,179.4538 c 1.3639,-3.1688 2.7892,-6.1021 4.1004 -8.2846c 0.5787,-0.9638 1.0434,-1.7318 1.3500 -2.2277c 0.4776,0.7798 1.1230,2.1061 1.8748 3.8347c 1.0972,2.5170 2.2191,5.7085 3.2689 9.2549c -3.3700,-0.7304 -6.8809,-1.5790 -10.5941 -2.5772c 0.0000,-0.0000 0.0000,-0.0000 0.0000 -0.0000ZM 819.7585,1549.7174 Z"/></g><g fill="rgb(255,255,255)" stroke="rgb(0,0,0)" stroke-linecap="butt" stroke-width="1.7623402914946675" font-size="2.362609705367161px" stroke-miterlimit="4.0" fill-opacity="1.0" stroke-opacity="0.0" stroke-linejoin="miter" opacity="1.0"><path d="M 819.7585,1549.7174 ZM 437.0052,173.4656 c 2.0609,-2.5525 4.0767,-4.8350 5.7848 -6.4431c 0.7035,-0.6626 1.2768,-1.1972 1.6673 -1.5608c 0.2033,0.7250 0.4281,1.8308 0.6669 3.2302c 0.4023,2.3643 0.6734,5.3115 0.8132 8.5826c -0.7282,-0.2183 -1.4607,-0.4442 -2.2040 -0.6744c -2.2890,-0.7121 -4.5274,-1.7813 -6.7282 -3.1344c 0.0000,-0.0000 0.0000,-0.0000 0.0000 -0.0000ZM 819.7585,1549.7174 Z"/></g></svg>